<svg xmlns="http://www.w3.org/2000/svg" width="200" height="360" viewBox="0 0 200 360"><path d="M3.46 0 Q3.46 0 4.06 3.75 Q4.66 7.5 5.19 11.25 Q5.72 15 6.12 18.75 Q6.51 22.5 6.75 26.25 Q6.99 30 7.07 33.75 Q7.15 37.5 7.11 41.25 Q7.07 45 6.96 48.75 Q6.84 52.5 6.72 56.25 Q6.59 60 6.49 63.75 Q6.39 67.5 6.35 71.25 Q6.3 75 6.3 78.75 Q6.3 82.5 6.32 86.25 Q6.34 90 6.33 93.75 Q6.32 97.5 6.25 101.25 Q6.18 105 6.01 108.75 Q5.84 112.5 5.57 116.25 Q5.31 120 4.97 123.75 Q4.64 127.5 4.28 131.25 Q3.92 135 3.6 138.75 Q3.27 142.5 3.04 146.25 Q2.81 150 2.71 153.75 Q2.61 157.5 2.65 161.25 Q2.69 165 2.85 168.75 Q3.01 172.5 3.24 176.25 Q3.46 180 3.69 183.75 Q3.91 187.5 4.07 191.25 Q4.23 195 4.27 198.75 Q4.31 202.5 4.21 206.25 Q4.11 210 3.88 213.75 Q3.65 217.5 3.33 221.25 Q3 225 2.64 228.75 Q2.28 232.5 1.94 236.25 Q1.61 240 1.35 243.75 Q1.08 247.5 0.91 251.25 Q0.74 255 0.67 258.75 Q0.6 262.5 0.59 266.25 Q0.58 270 0.6 273.75 Q0.62 277.5 0.62 281.25 Q0.62 285 0.57 288.75 Q0.53 292.5 0.43 296.25 Q0.33 300 0.21 303.75 Q0.08 307.5 -0.03 311.25 Q-0.15 315 -0.19 318.75 Q-0.23 322.5 -0.15 326.25 Q-0.07 330 0.17 333.75 Q0.41 337.5 0.81 341.25 Q1.2 345 1.73 348.75 Q2.26 352.5 2.86 356.25 L3.46 360" stroke="#4A3223" stroke-width="0.61" fill="none" stroke-linecap="round" opacity="0.87"/><path d="M7.03 0 Q7.03 0 7.53 3.75 Q8.03 7.5 8.46 11.25 Q8.88 15 9.18 18.75 Q9.47 22.5 9.6 26.25 Q9.73 30 9.72 33.75 Q9.7 37.5 9.57 41.25 Q9.44 45 9.27 48.75 Q9.09 52.5 8.93 56.25 Q8.76 60 8.66 63.75 Q8.56 67.5 8.54 71.25 Q8.52 75 8.58 78.75 Q8.64 82.5 8.74 86.25 Q8.83 90 8.91 93.75 Q8.99 97.5 9 101.25 Q9.01 105 8.92 108.75 Q8.83 112.5 8.63 116.25 Q8.42 120 8.13 123.75 Q7.83 127.5 7.5 131.25 Q7.16 135 6.86 138.75 Q6.55 142.5 6.34 146.25 Q6.12 150 6.05 153.75 Q5.97 157.5 6.04 161.25 Q6.11 165 6.31 168.75 Q6.5 172.5 6.77 176.25 Q7.03 180 7.3 183.75 Q7.56 187.5 7.76 191.25 Q7.95 195 8.02 198.75 Q8.09 202.5 8.02 206.25 Q7.94 210 7.73 213.75 Q7.51 217.5 7.21 221.25 Q6.9 225 6.57 228.75 Q6.23 232.5 5.94 236.25 Q5.64 240 5.44 243.75 Q5.23 247.5 5.14 251.25 Q5.05 255 5.06 258.75 Q5.07 262.5 5.15 266.25 Q5.23 270 5.33 273.75 Q5.42 277.5 5.48 281.25 Q5.54 285 5.52 288.75 Q5.5 292.5 5.4 296.25 Q5.3 300 5.14 303.75 Q4.97 307.5 4.8 311.25 Q4.62 315 4.49 318.75 Q4.36 322.5 4.35 326.25 Q4.33 330 4.46 333.75 Q4.59 337.5 4.89 341.25 Q5.18 345 5.61 348.75 Q6.03 352.5 6.53 356.25 L7.03 360" stroke="#4A3223" stroke-width="0.98" fill="none" stroke-linecap="round" opacity="0.76"/><path d="M12.22 0 Q12.22 0 12.78 3.75 Q13.34 7.5 13.83 11.25 Q14.31 15 14.68 18.75 Q15.04 22.5 15.25 26.25 Q15.45 30 15.51 33.75 Q15.56 37.5 15.5 41.25 Q15.44 45 15.31 48.75 Q15.18 52.5 15.04 56.25 Q14.9 60 14.79 63.75 Q14.68 67.5 14.63 71.25 Q14.57 75 14.57 78.75 Q14.56 82.5 14.58 86.25 Q14.59 90 14.59 93.75 Q14.58 97.5 14.52 101.25 Q14.45 105 14.3 108.75 Q14.14 112.5 13.9 116.25 Q13.65 120 13.34 123.75 Q13.03 127.5 12.7 131.25 Q12.36 135 12.07 138.75 Q11.77 142.5 11.57 146.25 Q11.36 150 11.29 153.75 Q11.22 157.5 11.29 161.25 Q11.35 165 11.54 168.75 Q11.72 172.5 11.97 176.25 Q12.22 180 12.47 183.75 Q12.72 187.5 12.91 191.25 Q13.09 195 13.16 198.75 Q13.22 202.5 13.15 206.25 Q13.08 210 12.88 213.75 Q12.67 217.5 12.38 221.25 Q12.08 225 11.75 228.75 Q11.41 232.5 11.1 236.25 Q10.79 240 10.55 243.75 Q10.3 247.5 10.15 251.25 Q9.99 255 9.93 258.75 Q9.86 262.5 9.86 266.25 Q9.85 270 9.87 273.75 Q9.88 277.5 9.88 281.25 Q9.87 285 9.82 288.75 Q9.76 292.5 9.65 296.25 Q9.54 300 9.4 303.75 Q9.26 307.5 9.13 311.25 Q9 315 8.94 318.75 Q8.88 322.5 8.94 326.25 Q8.99 330 9.2 333.75 Q9.4 337.5 9.77 341.25 Q10.13 345 10.62 348.75 Q11.1 352.5 11.66 356.25 L12.22 360" stroke="#4A3223" stroke-width="0.91" fill="none" stroke-linecap="round" opacity="0.85"/><path d="M17.4 0 Q17.4 0 17.99 3.75 Q18.58 7.5 19.1 11.25 Q19.61 15 19.98 18.75 Q20.34 22.5 20.54 26.25 Q20.73 30 20.76 33.75 Q20.79 37.5 20.7 41.25 Q20.6 45 20.44 48.75 Q20.28 52.5 20.12 56.25 Q19.96 60 19.86 63.75 Q19.75 67.5 19.72 71.25 Q19.69 75 19.73 78.75 Q19.77 82.5 19.85 86.25 Q19.92 90 19.97 93.75 Q20.02 97.5 19.99 101.25 Q19.97 105 19.84 108.75 Q19.7 112.5 19.45 116.25 Q19.2 120 18.86 123.75 Q18.52 127.5 18.14 131.25 Q17.76 135 17.42 138.75 Q17.07 142.5 16.83 146.25 Q16.59 150 16.49 153.75 Q16.38 157.5 16.44 161.25 Q16.5 165 16.69 168.75 Q16.87 172.5 17.13 176.25 Q17.4 180 17.67 183.75 Q17.93 187.5 18.12 191.25 Q18.3 195 18.36 198.75 Q18.42 202.5 18.32 206.25 Q18.21 210 17.97 213.75 Q17.73 217.5 17.38 221.25 Q17.04 225 16.66 228.75 Q16.28 232.5 15.94 236.25 Q15.6 240 15.35 243.75 Q15.1 247.5 14.97 251.25 Q14.83 255 14.81 258.75 Q14.78 262.5 14.83 266.25 Q14.88 270 14.96 273.75 Q15.03 277.5 15.07 281.25 Q15.11 285 15.08 288.75 Q15.05 292.5 14.95 296.25 Q14.84 300 14.68 303.75 Q14.52 307.5 14.36 311.25 Q14.2 315 14.11 318.75 Q14.01 322.5 14.04 326.25 Q14.07 330 14.27 333.75 Q14.46 337.5 14.83 341.25 Q15.19 345 15.7 348.75 Q16.22 352.5 16.81 356.25 L17.4 360" stroke="#4A3223" stroke-width="0.43" fill="none" stroke-linecap="round" opacity="0.76"/><path d="M23.42 0 Q23.42 0 23.97 3.75 Q24.51 7.5 25 11.25 Q25.49 15 25.88 18.75 Q26.26 22.5 26.51 26.25 Q26.76 30 26.89 33.75 Q27.01 37.5 27.03 41.25 Q27.04 45 26.98 48.75 Q26.92 52.5 26.84 56.25 Q26.75 60 26.67 63.75 Q26.58 67.5 26.52 71.25 Q26.46 75 26.42 78.75 Q26.38 82.5 26.35 86.25 Q26.31 90 26.24 93.75 Q26.18 97.5 26.07 101.25 Q25.96 105 25.78 108.75 Q25.59 112.5 25.34 116.25 Q25.09 120 24.8 123.75 Q24.5 127.5 24.2 131.25 Q23.89 135 23.62 138.75 Q23.35 142.5 23.16 146.25 Q22.96 150 22.88 153.75 Q22.79 157.5 22.82 161.25 Q22.84 165 22.96 168.75 Q23.08 172.5 23.25 176.25 Q23.42 180 23.59 183.75 Q23.76 187.5 23.88 191.25 Q24 195 24.03 198.75 Q24.05 202.5 23.97 206.25 Q23.88 210 23.69 213.75 Q23.49 217.5 23.22 221.25 Q22.95 225 22.65 228.75 Q22.34 232.5 22.05 236.25 Q21.75 240 21.5 243.75 Q21.25 247.5 21.07 251.25 Q20.88 255 20.77 258.75 Q20.66 262.5 20.6 266.25 Q20.53 270 20.5 273.75 Q20.46 277.5 20.42 281.25 Q20.38 285 20.32 288.75 Q20.26 292.5 20.18 296.25 Q20.09 300 20.01 303.75 Q19.92 307.5 19.86 311.25 Q19.8 315 19.81 318.75 Q19.83 322.5 19.95 326.25 Q20.08 330 20.33 333.75 Q20.58 337.5 20.97 341.25 Q21.35 345 21.84 348.75 Q22.33 352.5 22.88 356.25 L23.42 360" stroke="#4A3223" stroke-width="0.54" fill="none" stroke-linecap="round" opacity="0.81"/><path d="M27.47 0 Q27.47 0 27.86 3.75 Q28.25 7.5 28.6 11.25 Q28.95 15 29.23 18.75 Q29.5 22.5 29.68 26.25 Q29.85 30 29.93 33.75 Q30 37.5 29.99 41.25 Q29.99 45 29.92 48.75 Q29.86 52.5 29.77 56.25 Q29.67 60 29.57 63.75 Q29.47 67.5 29.38 71.25 Q29.29 75 29.22 78.75 Q29.14 82.5 29.07 86.25 Q28.99 90 28.91 93.75 Q28.82 97.5 28.7 101.25 Q28.58 105 28.43 108.75 Q28.28 112.5 28.09 116.25 Q27.9 120 27.7 123.75 Q27.49 127.5 27.3 131.25 Q27.1 135 26.95 138.75 Q26.79 142.5 26.7 146.25 Q26.61 150 26.61 153.75 Q26.61 157.5 26.69 161.25 Q26.77 165 26.92 168.75 Q27.08 172.5 27.28 176.25 Q27.47 180 27.67 183.75 Q27.86 187.5 28.02 191.25 Q28.17 195 28.25 198.75 Q28.33 202.5 28.33 206.25 Q28.33 210 28.24 213.75 Q28.15 217.5 27.99 221.25 Q27.84 225 27.65 228.75 Q27.45 232.5 27.24 236.25 Q27.04 240 26.85 243.75 Q26.66 247.5 26.51 251.25 Q26.36 255 26.24 258.75 Q26.12 262.5 26.04 266.25 Q25.95 270 25.88 273.75 Q25.8 277.5 25.73 281.25 Q25.65 285 25.56 288.75 Q25.47 292.5 25.37 296.25 Q25.27 300 25.17 303.75 Q25.08 307.5 25.02 311.25 Q24.95 315 24.95 318.75 Q24.94 322.5 25.02 326.25 Q25.09 330 25.27 333.75 Q25.44 337.5 25.72 341.25 Q25.99 345 26.34 348.75 Q26.69 352.5 27.08 356.25 L27.47 360" stroke="#4A3223" stroke-width="0.57" fill="none" stroke-linecap="round" opacity="0.61"/><path d="M32.41 0 Q32.41 0 32.85 3.75 Q33.3 7.5 33.7 11.25 Q34.09 15 34.39 18.75 Q34.68 22.5 34.86 26.25 Q35.03 30 35.09 33.75 Q35.14 37.5 35.11 41.25 Q35.07 45 34.98 48.75 Q34.88 52.5 34.77 56.25 Q34.66 60 34.57 63.75 Q34.48 67.5 34.42 71.25 Q34.36 75 34.33 78.75 Q34.3 82.5 34.28 86.25 Q34.27 90 34.24 93.75 Q34.21 97.5 34.13 101.25 Q34.05 105 33.92 108.75 Q33.78 112.5 33.58 116.25 Q33.38 120 33.13 123.75 Q32.88 127.5 32.63 131.25 Q32.38 135 32.16 138.75 Q31.94 142.5 31.8 146.25 Q31.65 150 31.6 153.75 Q31.56 157.5 31.63 161.25 Q31.69 165 31.85 168.75 Q32 172.5 32.21 176.25 Q32.41 180 32.61 183.75 Q32.82 187.5 32.98 191.25 Q33.13 195 33.2 198.75 Q33.26 202.5 33.22 206.25 Q33.17 210 33.03 213.75 Q32.88 217.5 32.66 221.25 Q32.44 225 32.19 228.75 Q31.94 232.5 31.69 236.25 Q31.44 240 31.24 243.75 Q31.04 247.5 30.91 251.25 Q30.77 255 30.69 258.75 Q30.61 262.5 30.58 266.25 Q30.55 270 30.54 273.75 Q30.52 277.5 30.49 281.25 Q30.46 285 30.4 288.75 Q30.34 292.5 30.25 296.25 Q30.16 300 30.05 303.75 Q29.94 307.5 29.85 311.25 Q29.75 315 29.72 318.75 Q29.68 322.5 29.74 326.25 Q29.79 330 29.97 333.75 Q30.14 337.5 30.44 341.25 Q30.73 345 31.13 348.75 Q31.52 352.5 31.96 356.25 L32.41 360" stroke="#4A3223" stroke-width="0.78" fill="none" stroke-linecap="round" opacity="0.71"/><path d="M37.92 0 Q37.92 0 38.53 3.75 Q39.13 7.5 39.66 11.25 Q40.19 15 40.58 18.75 Q40.98 22.5 41.22 26.25 Q41.45 30 41.53 33.75 Q41.6 37.5 41.56 41.25 Q41.52 45 41.42 48.75 Q41.31 52.5 41.2 56.25 Q41.09 60 41.02 63.75 Q40.95 67.5 40.95 71.25 Q40.94 75 40.99 78.75 Q41.04 82.5 41.11 86.25 Q41.18 90 41.22 93.75 Q41.26 97.5 41.22 101.25 Q41.19 105 41.05 108.75 Q40.91 112.5 40.65 116.25 Q40.39 120 40.05 123.75 Q39.7 127.5 39.32 131.25 Q38.93 135 38.57 138.75 Q38.2 142.5 37.92 146.25 Q37.65 150 37.5 153.75 Q37.35 157.5 37.35 161.25 Q37.34 165 37.45 168.75 Q37.56 172.5 37.74 176.25 Q37.92 180 38.1 183.75 Q38.28 187.5 38.39 191.25 Q38.5 195 38.5 198.75 Q38.49 202.5 38.34 206.25 Q38.19 210 37.92 213.75 Q37.64 217.5 37.28 221.25 Q36.91 225 36.53 228.75 Q36.14 232.5 35.8 236.25 Q35.45 240 35.19 243.75 Q34.93 247.5 34.79 251.25 Q34.65 255 34.61 258.75 Q34.58 262.5 34.62 266.25 Q34.66 270 34.73 273.75 Q34.8 277.5 34.85 281.25 Q34.9 285 34.89 288.75 Q34.89 292.5 34.82 296.25 Q34.75 300 34.64 303.75 Q34.53 307.5 34.42 311.25 Q34.32 315 34.28 318.75 Q34.24 322.5 34.32 326.25 Q34.39 330 34.63 333.75 Q34.86 337.5 35.25 341.25 Q35.65 345 36.18 348.75 Q36.71 352.5 37.32 356.25 L37.92 360" stroke="#4A3223" stroke-width="0.8" fill="none" stroke-linecap="round" opacity="0.61"/><path d="M42.09 0 Q42.09 0 42.63 3.75 Q43.17 7.5 43.64 11.25 Q44.11 15 44.46 18.75 Q44.81 22.5 45.01 26.25 Q45.21 30 45.27 33.75 Q45.32 37.5 45.26 41.25 Q45.2 45 45.08 48.75 Q44.95 52.5 44.81 56.25 Q44.66 60 44.55 63.75 Q44.43 67.5 44.36 71.25 Q44.29 75 44.27 78.75 Q44.24 82.5 44.24 86.25 Q44.23 90 44.21 93.75 Q44.19 97.5 44.11 101.25 Q44.03 105 43.87 108.75 Q43.71 112.5 43.47 116.25 Q43.23 120 42.94 123.75 Q42.64 127.5 42.33 131.25 Q42.01 135 41.74 138.75 Q41.47 142.5 41.29 146.25 Q41.11 150 41.06 153.75 Q41.01 157.5 41.1 161.25 Q41.18 165 41.38 168.75 Q41.57 172.5 41.83 176.25 Q42.09 180 42.35 183.75 Q42.61 187.5 42.81 191.25 Q43 195 43.09 198.75 Q43.17 202.5 43.12 206.25 Q43.07 210 42.89 213.75 Q42.71 217.5 42.44 221.25 Q42.17 225 41.86 228.75 Q41.54 232.5 41.25 236.25 Q40.95 240 40.71 243.75 Q40.47 247.5 40.31 251.25 Q40.15 255 40.07 258.75 Q39.99 262.5 39.97 266.25 Q39.95 270 39.95 273.75 Q39.94 277.5 39.92 281.25 Q39.89 285 39.82 288.75 Q39.75 292.5 39.64 296.25 Q39.52 300 39.38 303.75 Q39.23 307.5 39.1 311.25 Q38.98 315 38.92 318.75 Q38.86 322.5 38.92 326.25 Q38.97 330 39.17 333.75 Q39.37 337.5 39.72 341.25 Q40.07 345 40.54 348.75 Q41.01 352.5 41.55 356.25 L42.09 360" stroke="#4A3223" stroke-width="0.83" fill="none" stroke-linecap="round" opacity="0.87"/><path d="M48.46 0 Q48.46 0 48.94 3.75 Q49.42 7.5 49.85 11.25 Q50.27 15 50.59 18.75 Q50.91 22.5 51.11 26.25 Q51.3 30 51.37 33.75 Q51.44 37.5 51.42 41.25 Q51.39 45 51.32 48.75 Q51.24 52.5 51.15 56.25 Q51.06 60 51 63.75 Q50.93 67.5 50.91 71.25 Q50.89 75 50.91 78.75 Q50.92 82.5 50.95 86.25 Q50.98 90 50.99 93.75 Q51 97.5 50.95 101.25 Q50.9 105 50.78 108.75 Q50.65 112.5 50.44 116.25 Q50.23 120 49.96 123.75 Q49.68 127.5 49.39 131.25 Q49.09 135 48.82 138.75 Q48.55 142.5 48.35 146.25 Q48.14 150 48.04 153.75 Q47.94 157.5 47.95 161.25 Q47.96 165 48.06 168.75 Q48.16 172.5 48.31 176.25 Q48.46 180 48.61 183.75 Q48.76 187.5 48.86 191.25 Q48.96 195 48.97 198.75 Q48.98 202.5 48.88 206.25 Q48.78 210 48.58 213.75 Q48.37 217.5 48.1 221.25 Q47.83 225 47.54 228.75 Q47.24 232.5 46.97 236.25 Q46.69 240 46.48 243.75 Q46.27 247.5 46.15 251.25 Q46.02 255 45.97 258.75 Q45.92 262.5 45.93 266.25 Q45.94 270 45.97 273.75 Q46 277.5 46.02 281.25 Q46.03 285 46.01 288.75 Q45.99 292.5 45.93 296.25 Q45.86 300 45.77 303.75 Q45.68 307.5 45.61 311.25 Q45.53 315 45.51 318.75 Q45.48 322.5 45.55 326.25 Q45.62 330 45.82 333.75 Q46.01 337.5 46.33 341.25 Q46.65 345 47.08 348.75 Q47.5 352.5 47.98 356.25 L48.46 360" stroke="#4A3223" stroke-width="0.56" fill="none" stroke-linecap="round" opacity="0.94"/><path d="M51.68 0 Q51.68 0 52.31 3.75 Q52.94 7.5 53.49 11.25 Q54.03 15 54.44 18.75 Q54.84 22.5 55.07 26.25 Q55.3 30 55.36 33.75 Q55.42 37.5 55.35 41.25 Q55.28 45 55.14 48.75 Q54.99 52.5 54.84 56.25 Q54.68 60 54.57 63.75 Q54.46 67.5 54.41 71.25 Q54.36 75 54.37 78.75 Q54.38 82.5 54.42 86.25 Q54.45 90 54.46 93.75 Q54.47 97.5 54.41 101.25 Q54.35 105 54.19 108.75 Q54.02 112.5 53.75 116.25 Q53.47 120 53.11 123.75 Q52.76 127.5 52.38 131.25 Q52 135 51.66 138.75 Q51.31 142.5 51.07 146.25 Q50.83 150 50.74 153.75 Q50.64 157.5 50.7 161.25 Q50.76 165 50.96 168.75 Q51.15 172.5 51.42 176.25 Q51.68 180 51.95 183.75 Q52.21 187.5 52.41 191.25 Q52.6 195 52.66 198.75 Q52.72 202.5 52.63 206.25 Q52.53 210 52.29 213.75 Q52.05 217.5 51.71 221.25 Q51.36 225 50.98 228.75 Q50.6 232.5 50.25 236.25 Q49.89 240 49.62 243.75 Q49.34 247.5 49.18 251.25 Q49.01 255 48.95 258.75 Q48.89 262.5 48.9 266.25 Q48.91 270 48.94 273.75 Q48.98 277.5 48.99 281.25 Q49 285 48.95 288.75 Q48.9 292.5 48.79 296.25 Q48.68 300 48.53 303.75 Q48.37 307.5 48.22 311.25 Q48.08 315 48.01 318.75 Q47.94 322.5 48 326.25 Q48.06 330 48.29 333.75 Q48.52 337.5 48.93 341.25 Q49.33 345 49.88 348.75 Q50.42 352.5 51.05 356.25 L51.68 360" stroke="#4A3223" stroke-width="0.87" fill="none" stroke-linecap="round" opacity="0.62"/><path d="M57.55 0 Q57.55 0 57.93 3.75 Q58.3 7.5 58.63 11.25 Q58.96 15 59.21 18.75 Q59.45 22.5 59.59 26.25 Q59.73 30 59.77 33.75 Q59.8 37.5 59.76 41.25 Q59.72 45 59.64 48.75 Q59.55 52.5 59.45 56.25 Q59.35 60 59.28 63.75 Q59.2 67.5 59.16 71.25 Q59.11 75 59.1 78.75 Q59.08 82.5 59.09 86.25 Q59.09 90 59.08 93.75 Q59.06 97.5 59.01 101.25 Q58.96 105 58.85 108.75 Q58.74 112.5 58.58 116.25 Q58.41 120 58.2 123.75 Q57.99 127.5 57.77 131.25 Q57.55 135 57.36 138.75 Q57.17 142.5 57.04 146.25 Q56.91 150 56.87 153.75 Q56.83 157.5 56.89 161.25 Q56.94 165 57.07 168.75 Q57.2 172.5 57.38 176.25 Q57.55 180 57.72 183.75 Q57.9 187.5 58.03 191.25 Q58.16 195 58.22 198.75 Q58.27 202.5 58.23 206.25 Q58.19 210 58.06 213.75 Q57.93 217.5 57.74 221.25 Q57.55 225 57.33 228.75 Q57.11 232.5 56.9 236.25 Q56.69 240 56.53 243.75 Q56.36 247.5 56.25 251.25 Q56.14 255 56.09 258.75 Q56.04 262.5 56.03 266.25 Q56.01 270 56.02 273.75 Q56.02 277.5 56.01 281.25 Q55.99 285 55.95 288.75 Q55.9 292.5 55.83 296.25 Q55.75 300 55.65 303.75 Q55.55 307.5 55.47 311.25 Q55.38 315 55.34 318.75 Q55.3 322.5 55.33 326.25 Q55.37 330 55.51 333.75 Q55.65 337.5 55.9 341.25 Q56.14 345 56.47 348.75 Q56.8 352.5 57.18 356.25 L57.55 360" stroke="#4A3223" stroke-width="0.78" fill="none" stroke-linecap="round" opacity="0.63"/><path d="M63.12 0 Q63.12 0 63.69 3.75 Q64.25 7.5 64.74 11.25 Q65.23 15 65.59 18.75 Q65.94 22.5 66.14 26.25 Q66.34 30 66.38 33.75 Q66.42 37.5 66.35 41.25 Q66.28 45 66.15 48.75 Q66.02 52.5 65.9 56.25 Q65.77 60 65.7 63.75 Q65.63 67.5 65.63 71.25 Q65.63 75 65.69 78.75 Q65.75 82.5 65.85 86.25 Q65.94 90 66.01 93.75 Q66.07 97.5 66.07 101.25 Q66.06 105 65.94 108.75 Q65.82 112.5 65.58 116.25 Q65.35 120 65.02 123.75 Q64.69 127.5 64.32 131.25 Q63.95 135 63.6 138.75 Q63.25 142.5 62.99 146.25 Q62.72 150 62.59 153.75 Q62.45 157.5 62.46 161.25 Q62.47 165 62.6 168.75 Q62.73 172.5 62.93 176.25 Q63.12 180 63.32 183.75 Q63.51 187.5 63.64 191.25 Q63.77 195 63.78 198.75 Q63.79 202.5 63.66 206.25 Q63.52 210 63.26 213.75 Q62.99 217.5 62.64 221.25 Q62.29 225 61.92 228.75 Q61.55 232.5 61.22 236.25 Q60.89 240 60.66 243.75 Q60.42 247.5 60.3 251.25 Q60.18 255 60.18 258.75 Q60.17 262.5 60.24 266.25 Q60.3 270 60.4 273.75 Q60.49 277.5 60.55 281.25 Q60.61 285 60.61 288.75 Q60.61 292.5 60.54 296.25 Q60.47 300 60.35 303.75 Q60.22 307.5 60.09 311.25 Q59.96 315 59.89 318.75 Q59.82 322.5 59.86 326.25 Q59.9 330 60.1 333.75 Q60.3 337.5 60.66 341.25 Q61.01 345 61.5 348.75 Q61.99 352.5 62.56 356.25 L63.12 360" stroke="#4A3223" stroke-width="1.01" fill="none" stroke-linecap="round" opacity="0.75"/><path d="M66.57 0 Q66.57 0 67.09 3.75 Q67.61 7.5 68.07 11.25 Q68.53 15 68.89 18.75 Q69.25 22.5 69.47 26.25 Q69.69 30 69.79 33.75 Q69.88 37.5 69.86 41.25 Q69.84 45 69.76 48.75 Q69.67 52.5 69.56 56.25 Q69.44 60 69.32 63.75 Q69.21 67.5 69.13 71.25 Q69.04 75 68.98 78.75 Q68.92 82.5 68.87 86.25 Q68.81 90 68.74 93.75 Q68.67 97.5 68.55 101.25 Q68.43 105 68.25 108.75 Q68.07 112.5 67.83 116.25 Q67.59 120 67.31 123.75 Q67.03 127.5 66.75 131.25 Q66.47 135 66.23 138.75 Q65.99 142.5 65.84 146.25 Q65.69 150 65.65 153.75 Q65.61 157.5 65.69 161.25 Q65.77 165 65.94 168.75 Q66.11 172.5 66.34 176.25 Q66.57 180 66.8 183.75 Q67.03 187.5 67.2 191.25 Q67.37 195 67.45 198.75 Q67.53 202.5 67.49 206.25 Q67.45 210 67.3 213.75 Q67.15 217.5 66.91 221.25 Q66.67 225 66.39 228.75 Q66.11 232.5 65.83 236.25 Q65.55 240 65.31 243.75 Q65.07 247.5 64.89 251.25 Q64.71 255 64.59 258.75 Q64.47 262.5 64.4 266.25 Q64.33 270 64.28 273.75 Q64.22 277.5 64.16 281.25 Q64.1 285 64.02 288.75 Q63.93 292.5 63.82 296.25 Q63.7 300 63.59 303.75 Q63.47 307.5 63.39 311.25 Q63.3 315 63.28 318.75 Q63.26 322.5 63.36 326.25 Q63.45 330 63.67 333.75 Q63.89 337.5 64.25 341.25 Q64.61 345 65.07 348.75 Q65.53 352.5 66.05 356.25 L66.57 360" stroke="#4A3223" stroke-width="0.92" fill="none" stroke-linecap="round" opacity="0.86"/><path d="M71.59 0 Q71.59 0 72.15 3.75 Q72.7 7.5 73.2 11.25 Q73.7 15 74.09 18.75 Q74.48 22.5 74.75 26.25 Q75.01 30 75.14 33.75 Q75.26 37.5 75.28 41.25 Q75.3 45 75.25 48.75 Q75.19 52.5 75.1 56.25 Q75.02 60 74.94 63.75 Q74.86 67.5 74.8 71.25 Q74.73 75 74.69 78.75 Q74.64 82.5 74.6 86.25 Q74.56 90 74.5 93.75 Q74.43 97.5 74.31 101.25 Q74.19 105 74 108.75 Q73.81 112.5 73.56 116.25 Q73.3 120 73 123.75 Q72.7 127.5 72.39 131.25 Q72.08 135 71.81 138.75 Q71.53 142.5 71.34 146.25 Q71.15 150 71.06 153.75 Q70.97 157.5 71 161.25 Q71.02 165 71.13 168.75 Q71.25 172.5 71.42 176.25 Q71.59 180 71.76 183.75 Q71.93 187.5 72.05 191.25 Q72.16 195 72.19 198.75 Q72.21 202.5 72.12 206.25 Q72.03 210 71.84 213.75 Q71.65 217.5 71.38 221.25 Q71.1 225 70.79 228.75 Q70.48 232.5 70.18 236.25 Q69.88 240 69.63 243.75 Q69.37 247.5 69.18 251.25 Q68.99 255 68.87 258.75 Q68.75 262.5 68.69 266.25 Q68.62 270 68.58 273.75 Q68.54 277.5 68.5 281.25 Q68.45 285 68.38 288.75 Q68.32 292.5 68.24 296.25 Q68.16 300 68.07 303.75 Q67.99 307.5 67.94 311.25 Q67.88 315 67.9 318.75 Q67.92 322.5 68.05 326.25 Q68.17 330 68.44 333.75 Q68.7 337.5 69.09 341.25 Q69.48 345 69.98 348.75 Q70.48 352.5 71.04 356.25 L71.59 360" stroke="#4A3223" stroke-width="1.07" fill="none" stroke-linecap="round" opacity="0.68"/><path d="M77.12 0 Q77.12 0 77.62 3.75 Q78.11 7.5 78.56 11.25 Q79.01 15 79.37 18.75 Q79.72 22.5 79.97 26.25 Q80.21 30 80.34 33.75 Q80.47 37.5 80.5 41.25 Q80.52 45 80.47 48.75 Q80.42 52.5 80.33 56.25 Q80.24 60 80.13 63.75 Q80.01 67.5 79.9 71.25 Q79.79 75 79.69 78.75 Q79.58 82.5 79.47 86.25 Q79.36 90 79.23 93.75 Q79.1 97.5 78.94 101.25 Q78.77 105 78.57 108.75 Q78.36 112.5 78.12 116.25 Q77.88 120 77.63 123.75 Q77.37 127.5 77.13 131.25 Q76.88 135 76.69 138.75 Q76.5 142.5 76.38 146.25 Q76.27 150 76.25 153.75 Q76.23 157.5 76.31 161.25 Q76.39 165 76.55 168.75 Q76.71 172.5 76.91 176.25 Q77.12 180 77.33 183.75 Q77.53 187.5 77.69 191.25 Q77.85 195 77.93 198.75 Q78.01 202.5 77.99 206.25 Q77.97 210 77.85 213.75 Q77.74 217.5 77.55 221.25 Q77.36 225 77.12 228.75 Q76.87 232.5 76.62 236.25 Q76.36 240 76.12 243.75 Q75.88 247.5 75.68 251.25 Q75.47 255 75.31 258.75 Q75.14 262.5 75.01 266.25 Q74.88 270 74.77 273.75 Q74.66 277.5 74.56 281.25 Q74.45 285 74.34 288.75 Q74.23 292.5 74.12 296.25 Q74 300 73.91 303.75 Q73.82 307.5 73.77 311.25 Q73.72 315 73.75 318.75 Q73.77 322.5 73.9 326.25 Q74.03 330 74.28 333.75 Q74.52 337.5 74.88 341.25 Q75.23 345 75.68 348.75 Q76.13 352.5 76.63 356.25 L77.12 360" stroke="#4A3223" stroke-width="0.88" fill="none" stroke-linecap="round" opacity="0.56"/><path d="M83.16 0 Q83.16 0 83.55 3.75 Q83.94 7.5 84.29 11.25 Q84.63 15 84.89 18.75 Q85.15 22.5 85.31 26.25 Q85.47 30 85.53 33.75 Q85.58 37.5 85.55 41.25 Q85.52 45 85.45 48.75 Q85.37 52.5 85.28 56.25 Q85.18 60 85.1 63.75 Q85.02 67.5 84.97 71.25 Q84.92 75 84.89 78.75 Q84.86 82.5 84.84 86.25 Q84.82 90 84.79 93.75 Q84.76 97.5 84.69 101.25 Q84.62 105 84.5 108.75 Q84.37 112.5 84.19 116.25 Q84.01 120 83.8 123.75 Q83.59 127.5 83.37 131.25 Q83.15 135 82.96 138.75 Q82.77 142.5 82.65 146.25 Q82.52 150 82.48 153.75 Q82.44 157.5 82.5 161.25 Q82.55 165 82.68 168.75 Q82.81 172.5 82.99 176.25 Q83.16 180 83.34 183.75 Q83.51 187.5 83.64 191.25 Q83.77 195 83.82 198.75 Q83.88 202.5 83.84 206.25 Q83.8 210 83.68 213.75 Q83.55 217.5 83.36 221.25 Q83.17 225 82.95 228.75 Q82.73 232.5 82.52 236.25 Q82.31 240 82.13 243.75 Q81.95 247.5 81.83 251.25 Q81.7 255 81.63 258.75 Q81.56 262.5 81.53 266.25 Q81.5 270 81.48 273.75 Q81.46 277.5 81.43 281.25 Q81.4 285 81.35 288.75 Q81.3 292.5 81.22 296.25 Q81.14 300 81.05 303.75 Q80.95 307.5 80.88 311.25 Q80.8 315 80.77 318.75 Q80.74 322.5 80.79 326.25 Q80.85 330 81.01 333.75 Q81.17 337.5 81.43 341.25 Q81.69 345 82.04 348.75 Q82.38 352.5 82.77 356.25 L83.16 360" stroke="#4A3223" stroke-width="0.78" fill="none" stroke-linecap="round" opacity="0.63"/><path d="M86.65 0 Q86.65 0 87.22 3.75 Q87.78 7.5 88.28 11.25 Q88.77 15 89.13 18.75 Q89.48 22.5 89.68 26.25 Q89.87 30 89.91 33.75 Q89.95 37.5 89.87 41.25 Q89.79 45 89.65 48.75 Q89.5 52.5 89.35 56.25 Q89.21 60 89.1 63.75 Q89 67.5 88.97 71.25 Q88.93 75 88.96 78.75 Q88.98 82.5 89.03 86.25 Q89.08 90 89.12 93.75 Q89.15 97.5 89.11 101.25 Q89.07 105 88.94 108.75 Q88.8 112.5 88.56 116.25 Q88.31 120 87.99 123.75 Q87.66 127.5 87.31 131.25 Q86.95 135 86.63 138.75 Q86.31 142.5 86.09 146.25 Q85.86 150 85.77 153.75 Q85.68 157.5 85.74 161.25 Q85.79 165 85.97 168.75 Q86.15 172.5 86.4 176.25 Q86.65 180 86.9 183.75 Q87.15 187.5 87.33 191.25 Q87.51 195 87.57 198.75 Q87.62 202.5 87.53 206.25 Q87.44 210 87.22 213.75 Q86.99 217.5 86.67 221.25 Q86.35 225 86 228.75 Q85.64 232.5 85.32 236.25 Q84.99 240 84.75 243.75 Q84.5 247.5 84.37 251.25 Q84.23 255 84.19 258.75 Q84.15 262.5 84.19 266.25 Q84.22 270 84.27 273.75 Q84.32 277.5 84.35 281.25 Q84.37 285 84.34 288.75 Q84.3 292.5 84.2 296.25 Q84.09 300 83.95 303.75 Q83.8 307.5 83.66 311.25 Q83.51 315 83.43 318.75 Q83.35 322.5 83.39 326.25 Q83.43 330 83.63 333.75 Q83.82 337.5 84.18 341.25 Q84.53 345 85.03 348.75 Q85.52 352.5 86.09 356.25 L86.65 360" stroke="#4A3223" stroke-width="0.58" fill="none" stroke-linecap="round" opacity="0.76"/><path d="M92.77 0 Q92.77 0 93.29 3.75 Q93.8 7.5 94.26 11.25 Q94.71 15 95.07 18.75 Q95.44 22.5 95.69 26.25 Q95.93 30 96.06 33.75 Q96.19 37.5 96.22 41.25 Q96.24 45 96.2 48.75 Q96.16 52.5 96.1 56.25 Q96.03 60 95.97 63.75 Q95.9 67.5 95.85 71.25 Q95.8 75 95.77 78.75 Q95.73 82.5 95.7 86.25 Q95.67 90 95.62 93.75 Q95.56 97.5 95.46 101.25 Q95.35 105 95.18 108.75 Q95 112.5 94.77 116.25 Q94.54 120 94.26 123.75 Q93.98 127.5 93.69 131.25 Q93.4 135 93.15 138.75 Q92.89 142.5 92.7 146.25 Q92.51 150 92.42 153.75 Q92.32 157.5 92.32 161.25 Q92.33 165 92.42 168.75 Q92.5 172.5 92.64 176.25 Q92.77 180 92.91 183.75 Q93.04 187.5 93.13 191.25 Q93.21 195 93.22 198.75 Q93.22 202.5 93.13 206.25 Q93.03 210 92.84 213.75 Q92.65 217.5 92.4 221.25 Q92.14 225 91.85 228.75 Q91.56 232.5 91.28 236.25 Q91 240 90.77 243.75 Q90.54 247.5 90.37 251.25 Q90.19 255 90.09 258.75 Q89.98 262.5 89.93 266.25 Q89.87 270 89.84 273.75 Q89.81 277.5 89.78 281.25 Q89.74 285 89.69 288.75 Q89.64 292.5 89.58 296.25 Q89.51 300 89.45 303.75 Q89.38 307.5 89.34 311.25 Q89.3 315 89.32 318.75 Q89.35 322.5 89.48 326.25 Q89.61 330 89.85 333.75 Q90.1 337.5 90.47 341.25 Q90.83 345 91.29 348.75 Q91.74 352.5 92.26 356.25 L92.77 360" stroke="#4A3223" stroke-width="0.68" fill="none" stroke-linecap="round" opacity="0.85"/><path d="M98.25 0 Q98.25 0 98.75 3.75 Q99.25 7.5 99.71 11.25 Q100.17 15 100.54 18.75 Q100.91 22.5 101.18 26.25 Q101.45 30 101.62 33.75 Q101.78 37.5 101.85 41.25 Q101.91 45 101.92 48.75 Q101.92 52.5 101.89 56.25 Q101.85 60 101.81 63.75 Q101.76 67.5 101.72 71.25 Q101.67 75 101.63 78.75 Q101.58 82.5 101.53 86.25 Q101.47 90 101.39 93.75 Q101.31 97.5 101.19 101.25 Q101.06 105 100.88 108.75 Q100.7 112.5 100.47 116.25 Q100.23 120 99.97 123.75 Q99.7 127.5 99.43 131.25 Q99.15 135 98.9 138.75 Q98.65 142.5 98.46 146.25 Q98.27 150 98.16 153.75 Q98.05 157.5 98.03 161.25 Q98 165 98.05 168.75 Q98.09 172.5 98.17 176.25 Q98.25 180 98.33 183.75 Q98.41 187.5 98.46 191.25 Q98.5 195 98.48 198.75 Q98.45 202.5 98.34 206.25 Q98.23 210 98.04 213.75 Q97.85 217.5 97.6 221.25 Q97.35 225 97.07 228.75 Q96.8 232.5 96.54 236.25 Q96.27 240 96.04 243.75 Q95.8 247.5 95.62 251.25 Q95.44 255 95.32 258.75 Q95.19 262.5 95.11 266.25 Q95.03 270 94.98 273.75 Q94.92 277.5 94.88 281.25 Q94.83 285 94.79 288.75 Q94.74 292.5 94.7 296.25 Q94.65 300 94.62 303.75 Q94.58 307.5 94.59 311.25 Q94.59 315 94.66 318.75 Q94.72 322.5 94.89 326.25 Q95.05 330 95.32 333.75 Q95.59 337.5 95.96 341.25 Q96.33 345 96.79 348.75 Q97.25 352.5 97.75 356.25 L98.25 360" stroke="#4A3223" stroke-width="0.93" fill="none" stroke-linecap="round" opacity="0.72"/><path d="M102.36 0 Q102.36 0 102.72 3.75 Q103.08 7.5 103.4 11.25 Q103.72 15 103.97 18.75 Q104.21 22.5 104.37 26.25 Q104.53 30 104.6 33.75 Q104.66 37.5 104.66 41.25 Q104.65 45 104.6 48.75 Q104.54 52.5 104.47 56.25 Q104.39 60 104.33 63.75 Q104.26 67.5 104.21 71.25 Q104.16 75 104.14 78.75 Q104.11 82.5 104.09 86.25 Q104.06 90 104.02 93.75 Q103.98 97.5 103.91 101.25 Q103.83 105 103.72 108.75 Q103.6 112.5 103.44 116.25 Q103.27 120 103.07 123.75 Q102.88 127.5 102.68 131.25 Q102.47 135 102.3 138.75 Q102.13 142.5 102.01 146.25 Q101.89 150 101.85 153.75 Q101.81 157.5 101.85 161.25 Q101.88 165 101.98 168.75 Q102.08 172.5 102.22 176.25 Q102.36 180 102.5 183.75 Q102.64 187.5 102.74 191.25 Q102.84 195 102.88 198.75 Q102.91 202.5 102.87 206.25 Q102.83 210 102.71 213.75 Q102.59 217.5 102.42 221.25 Q102.25 225 102.05 228.75 Q101.84 232.5 101.65 236.25 Q101.45 240 101.29 243.75 Q101.12 247.5 101.01 251.25 Q100.89 255 100.82 258.75 Q100.74 262.5 100.7 266.25 Q100.66 270 100.64 273.75 Q100.61 277.5 100.59 281.25 Q100.56 285 100.51 288.75 Q100.46 292.5 100.4 296.25 Q100.33 300 100.26 303.75 Q100.18 307.5 100.13 311.25 Q100.07 315 100.07 318.75 Q100.06 322.5 100.13 326.25 Q100.19 330 100.35 333.75 Q100.51 337.5 100.76 341.25 Q101 345 101.32 348.75 Q101.64 352.5 102 356.25 L102.36 360" stroke="#4A3223" stroke-width="1.06" fill="none" stroke-linecap="round" opacity="0.93"/><path d="M107.36 0 Q107.36 0 107.87 3.75 Q108.38 7.5 108.84 11.25 Q109.29 15 109.64 18.75 Q109.98 22.5 110.2 26.25 Q110.41 30 110.49 33.75 Q110.57 37.5 110.54 41.25 Q110.51 45 110.41 48.75 Q110.3 52.5 110.17 56.25 Q110.03 60 109.9 63.75 Q109.77 67.5 109.67 71.25 Q109.56 75 109.48 78.75 Q109.4 82.5 109.33 86.25 Q109.26 90 109.17 93.75 Q109.08 97.5 108.95 101.25 Q108.82 105 108.64 108.75 Q108.45 112.5 108.21 116.25 Q107.97 120 107.7 123.75 Q107.43 127.5 107.16 131.25 Q106.89 135 106.68 138.75 Q106.46 142.5 106.34 146.25 Q106.21 150 106.2 153.75 Q106.19 157.5 106.3 161.25 Q106.41 165 106.62 168.75 Q106.83 172.5 107.1 176.25 Q107.36 180 107.63 183.75 Q107.89 187.5 108.1 191.25 Q108.31 195 108.42 198.75 Q108.53 202.5 108.52 206.25 Q108.51 210 108.39 213.75 Q108.26 217.5 108.05 221.25 Q107.83 225 107.56 228.75 Q107.29 232.5 107.02 236.25 Q106.75 240 106.51 243.75 Q106.27 247.5 106.09 251.25 Q105.9 255 105.77 258.75 Q105.64 262.5 105.55 266.25 Q105.46 270 105.39 273.75 Q105.32 277.5 105.24 281.25 Q105.16 285 105.06 288.75 Q104.95 292.5 104.82 296.25 Q104.69 300 104.56 303.75 Q104.42 307.5 104.32 311.25 Q104.21 315 104.18 318.75 Q104.15 322.5 104.23 326.25 Q104.31 330 104.53 333.75 Q104.74 337.5 105.09 341.25 Q105.43 345 105.89 348.75 Q106.34 352.5 106.85 356.25 L107.36 360" stroke="#4A3223" stroke-width="1.1" fill="none" stroke-linecap="round" opacity="0.91"/><path d="M112.76 0 Q112.76 0 113.31 3.75 Q113.85 7.5 114.32 11.25 Q114.8 15 115.15 18.75 Q115.49 22.5 115.68 26.25 Q115.86 30 115.9 33.75 Q115.93 37.5 115.84 41.25 Q115.75 45 115.6 48.75 Q115.45 52.5 115.3 56.25 Q115.14 60 115.02 63.75 Q114.9 67.5 114.85 71.25 Q114.79 75 114.8 78.75 Q114.8 82.5 114.82 86.25 Q114.85 90 114.86 93.75 Q114.87 97.5 114.82 101.25 Q114.77 105 114.63 108.75 Q114.48 112.5 114.25 116.25 Q114.01 120 113.7 123.75 Q113.39 127.5 113.06 131.25 Q112.73 135 112.44 138.75 Q112.14 142.5 111.95 146.25 Q111.75 150 111.69 153.75 Q111.63 157.5 111.72 161.25 Q111.8 165 112.01 168.75 Q112.21 172.5 112.49 176.25 Q112.76 180 113.04 183.75 Q113.31 187.5 113.52 191.25 Q113.72 195 113.81 198.75 Q113.89 202.5 113.83 206.25 Q113.77 210 113.57 213.75 Q113.38 217.5 113.09 221.25 Q112.79 225 112.46 228.75 Q112.13 232.5 111.82 236.25 Q111.51 240 111.28 243.75 Q111.04 247.5 110.9 251.25 Q110.75 255 110.7 258.75 Q110.65 262.5 110.66 266.25 Q110.67 270 110.7 273.75 Q110.72 277.5 110.73 281.25 Q110.73 285 110.68 288.75 Q110.62 292.5 110.5 296.25 Q110.38 300 110.23 303.75 Q110.07 307.5 109.92 311.25 Q109.77 315 109.68 318.75 Q109.59 322.5 109.63 326.25 Q109.66 330 109.85 333.75 Q110.03 337.5 110.38 341.25 Q110.72 345 111.2 348.75 Q111.67 352.5 112.22 356.25 L112.76 360" stroke="#4A3223" stroke-width="0.57" fill="none" stroke-linecap="round" opacity="0.84"/><path d="M118.13 0 Q118.13 0 118.73 3.75 Q119.33 7.5 119.85 11.25 Q120.38 15 120.76 18.75 Q121.14 22.5 121.35 26.25 Q121.57 30 121.63 33.75 Q121.68 37.5 121.62 41.25 Q121.55 45 121.43 48.75 Q121.3 52.5 121.18 56.25 Q121.06 60 121 63.75 Q120.94 67.5 120.95 71.25 Q120.96 75 121.04 78.75 Q121.12 82.5 121.23 86.25 Q121.34 90 121.42 93.75 Q121.5 97.5 121.5 101.25 Q121.49 105 121.37 108.75 Q121.25 112.5 121 116.25 Q120.75 120 120.4 123.75 Q120.05 127.5 119.65 131.25 Q119.24 135 118.86 138.75 Q118.48 142.5 118.19 146.25 Q117.89 150 117.73 153.75 Q117.57 157.5 117.56 161.25 Q117.54 165 117.65 168.75 Q117.76 172.5 117.95 176.25 Q118.13 180 118.32 183.75 Q118.5 187.5 118.61 191.25 Q118.72 195 118.71 198.75 Q118.69 202.5 118.53 206.25 Q118.37 210 118.08 213.75 Q117.78 217.5 117.4 221.25 Q117.02 225 116.62 228.75 Q116.21 232.5 115.86 236.25 Q115.51 240 115.26 243.75 Q115.01 247.5 114.89 251.25 Q114.77 255 114.77 258.75 Q114.76 262.5 114.84 266.25 Q114.92 270 115.03 273.75 Q115.14 277.5 115.22 281.25 Q115.3 285 115.31 288.75 Q115.32 292.5 115.26 296.25 Q115.2 300 115.08 303.75 Q114.96 307.5 114.84 311.25 Q114.71 315 114.65 318.75 Q114.58 322.5 114.64 326.25 Q114.69 330 114.91 333.75 Q115.12 337.5 115.5 341.25 Q115.88 345 116.41 348.75 Q116.93 352.5 117.53 356.25 L118.13 360" stroke="#4A3223" stroke-width="0.5" fill="none" stroke-linecap="round" opacity="0.84"/><path d="M122.45 0 Q122.45 0 122.89 3.75 Q123.33 7.5 123.72 11.25 Q124.11 15 124.42 18.75 Q124.73 22.5 124.94 26.25 Q125.15 30 125.26 33.75 Q125.36 37.5 125.38 41.25 Q125.4 45 125.37 48.75 Q125.34 52.5 125.29 56.25 Q125.24 60 125.2 63.75 Q125.16 67.5 125.15 71.25 Q125.13 75 125.13 78.75 Q125.13 82.5 125.13 86.25 Q125.13 90 125.11 93.75 Q125.09 97.5 125.03 101.25 Q124.96 105 124.82 108.75 Q124.69 112.5 124.5 116.25 Q124.3 120 124.06 123.75 Q123.81 127.5 123.55 131.25 Q123.29 135 123.05 138.75 Q122.81 142.5 122.63 146.25 Q122.44 150 122.33 153.75 Q122.22 157.5 122.2 161.25 Q122.17 165 122.22 168.75 Q122.27 172.5 121.98 176.25 Q121.69 180 121.15 183.75 Q120.61 187.5 120.15 191.25 Q119.68 195 119.32 198.75 Q118.96 202.5 118.74 206.25 Q118.52 210 118.45 213.75 Q118.37 217.5 118.47 221.25 Q118.56 225 118.81 228.75 Q119.06 232.5 119.45 236.25 Q119.84 240 120.03 243.75 Q120.21 247.5 120.07 251.25 Q119.94 255 119.88 258.75 Q119.81 262.5 119.79 266.25 Q119.77 270 119.77 273.75 Q119.77 277.5 119.77 281.25 Q119.77 285 119.76 288.75 Q119.74 292.5 119.7 296.25 Q119.66 300 119.61 303.75 Q119.56 307.5 119.53 311.25 Q119.5 315 119.52 318.75 Q119.54 322.5 119.65 326.25 Q119.75 330 119.96 333.75 Q120.17 337.5 120.48 341.25 Q120.79 345 121.18 348.75 Q121.57 352.5 122.01 356.25 L122.45 360" stroke="#4A3223" stroke-width="0.6" fill="none" stroke-linecap="round" opacity="0.72"/><path d="M127.85 0 Q127.85 0 128.22 3.75 Q128.58 7.5 128.91 11.25 Q129.23 15 129.48 18.75 Q129.73 22.5 129.89 26.25 Q130.05 30 130.12 33.75 Q130.19 37.5 130.18 41.25 Q130.17 45 130.12 48.75 Q130.06 52.5 129.99 56.25 Q129.91 60 129.83 63.75 Q129.76 67.5 129.7 71.25 Q129.65 75 129.61 78.75 Q129.57 82.5 129.54 86.25 Q129.5 90 129.45 93.75 Q129.41 97.5 129.32 101.25 Q129.24 105 129.12 108.75 Q128.99 112.5 128.82 116.25 Q128.66 120 128.46 123.75 Q128.26 127.5 128.07 131.25 Q127.87 135 127.7 138.75 Q127.53 142.5 127.42 146.25 Q127.31 150 127.28 153.75 Q127.24 157.5 127.29 161.25 Q127.33 165 127.44 168.75 Q127.55 172.5 126.81 176.25 Q126.06 180 124.71 183.75 Q123.36 187.5 122.26 191.25 Q121.15 195 120.41 198.75 Q119.66 202.5 119.35 206.25 Q119.04 210 119.21 213.75 Q119.37 217.5 120 221.25 Q120.62 225 121.64 228.75 Q122.65 232.5 123.95 236.25 Q125.25 240 125.98 243.75 Q126.71 247.5 126.59 251.25 Q126.46 255 126.38 258.75 Q126.29 262.5 126.25 266.25 Q126.2 270 126.17 273.75 Q126.13 277.5 126.09 281.25 Q126.05 285 126 288.75 Q125.94 292.5 125.87 296.25 Q125.79 300 125.72 303.75 Q125.64 307.5 125.59 311.25 Q125.53 315 125.52 318.75 Q125.51 322.5 125.58 326.25 Q125.65 330 125.81 333.75 Q125.97 337.5 126.22 341.25 Q126.47 345 126.8 348.75 Q127.12 352.5 127.49 356.25 L127.85 360" stroke="#4A3223" stroke-width="0.77" fill="none" stroke-linecap="round" opacity="0.95"/><path d="M131.94 0 Q131.94 0 132.47 3.75 Q132.99 7.5 133.44 11.25 Q133.89 15 134.21 18.75 Q134.54 22.5 134.71 26.25 Q134.89 30 134.93 33.75 Q134.96 37.5 134.89 41.25 Q134.81 45 134.69 48.75 Q134.57 52.5 134.47 56.25 Q134.36 60 134.32 63.75 Q134.27 67.5 134.3 71.25 Q134.33 75 134.43 78.75 Q134.53 82.5 134.66 86.25 Q134.79 90 134.89 93.75 Q134.99 97.5 135.02 101.25 Q135.05 105 134.96 108.75 Q134.87 112.5 134.66 116.25 Q134.45 120 134.14 123.75 Q133.82 127.5 133.45 131.25 Q133.09 135 132.74 138.75 Q132.39 142.5 132.11 146.25 Q131.83 150 131.67 153.75 Q131.51 157.5 131.49 161.25 Q131.46 165 131.55 168.75 Q131.64 172.5 130.5 176.25 Q129.36 180 127.37 183.75 Q125.37 187.5 123.71 191.25 Q122.05 195 120.89 198.75 Q119.72 202.5 119.17 206.25 Q118.61 210 118.73 213.75 Q118.84 217.5 119.63 221.25 Q120.41 225 121.8 228.75 Q123.18 232.5 125.02 236.25 Q126.85 240 127.93 243.75 Q129.01 247.5 128.92 251.25 Q128.83 255 128.86 258.75 Q128.89 262.5 128.99 266.25 Q129.09 270 129.22 273.75 Q129.35 277.5 129.45 281.25 Q129.55 285 129.58 288.75 Q129.61 292.5 129.57 296.25 Q129.52 300 129.42 303.75 Q129.31 307.5 129.19 311.25 Q129.07 315 129 318.75 Q128.92 322.5 128.95 326.25 Q128.99 330 129.17 333.75 Q129.34 337.5 129.67 341.25 Q129.99 345 130.44 348.75 Q130.89 352.5 131.42 356.25 L131.94 360" stroke="#4A3223" stroke-width="1" fill="none" stroke-linecap="round" opacity="0.73"/><path d="M137.45 0 Q137.45 0 137.95 3.75 Q138.46 7.5 138.91 11.25 Q139.36 15 139.73 18.75 Q140.09 22.5 140.35 26.25 Q140.6 30 140.74 33.75 Q140.88 37.5 140.93 41.25 Q140.97 45 140.95 48.75 Q140.93 52.5 140.88 56.25 Q140.83 60 140.78 63.75 Q140.72 67.5 140.68 71.25 Q140.63 75 140.6 78.75 Q140.57 82.5 140.53 86.25 Q140.49 90 140.43 93.75 Q140.36 97.5 140.25 101.25 Q140.14 105 139.97 108.75 Q139.8 112.5 139.57 116.25 Q139.34 120 139.07 123.75 Q138.79 127.5 138.51 131.25 Q138.23 135 137.98 138.75 Q137.72 142.5 137.53 146.25 Q137.34 150 137.24 153.75 Q137.14 157.5 137.13 161.25 Q137.11 165 137.18 168.75 Q137.24 172.5 138.12 176.25 Q138.99 180 140.39 183.75 Q141.78 187.5 142.89 191.25 Q144 195 144.67 198.75 Q145.34 202.5 145.48 206.25 Q145.61 210 145.18 213.75 Q144.75 217.5 143.82 221.25 Q142.88 225 141.56 228.75 Q140.23 232.5 138.67 236.25 Q137.11 240 136.11 243.75 Q135.1 247.5 134.93 251.25 Q134.76 255 134.65 258.75 Q134.54 262.5 134.48 266.25 Q134.41 270 134.37 273.75 Q134.33 277.5 134.3 281.25 Q134.27 285 134.23 288.75 Q134.18 292.5 134.13 296.25 Q134.07 300 134.02 303.75 Q133.97 307.5 133.95 311.25 Q133.93 315 133.98 318.75 Q134.02 322.5 134.16 326.25 Q134.3 330 134.56 333.75 Q134.81 337.5 135.18 341.25 Q135.54 345 135.99 348.75 Q136.44 352.5 136.95 356.25 L137.45 360" stroke="#4A3223" stroke-width="0.71" fill="none" stroke-linecap="round" opacity="0.93"/><path d="M143.48 0 Q143.48 0 143.93 3.75 Q144.37 7.5 144.76 11.25 Q145.15 15 145.46 18.75 Q145.77 22.5 145.97 26.25 Q146.16 30 146.24 33.75 Q146.32 37.5 146.31 41.25 Q146.3 45 146.23 48.75 Q146.15 52.5 146.05 56.25 Q145.94 60 145.83 63.75 Q145.72 67.5 145.63 71.25 Q145.53 75 145.45 78.75 Q145.38 82.5 145.31 86.25 Q145.23 90 145.14 93.75 Q145.05 97.5 144.93 101.25 Q144.81 105 144.64 108.75 Q144.47 112.5 144.26 116.25 Q144.05 120 143.82 123.75 Q143.58 127.5 143.36 131.25 Q143.13 135 142.95 138.75 Q142.77 142.5 142.66 146.25 Q142.55 150 142.54 153.75 Q142.53 157.5 142.62 161.25 Q142.71 165 142.88 168.75 Q143.05 172.5 143.46 176.25 Q143.87 180 144.41 183.75 Q144.94 187.5 145.38 191.25 Q145.81 195 146.07 198.75 Q146.33 202.5 146.38 206.25 Q146.43 210 146.26 213.75 Q146.09 217.5 145.74 221.25 Q145.39 225 144.9 228.75 Q144.41 232.5 143.86 236.25 Q143.3 240 142.9 243.75 Q142.49 247.5 142.32 251.25 Q142.15 255 142.03 258.75 Q141.91 262.5 141.82 266.25 Q141.73 270 141.66 273.75 Q141.58 277.5 141.51 281.25 Q141.43 285 141.34 288.75 Q141.24 292.5 141.13 296.25 Q141.02 300 140.92 303.75 Q140.81 307.5 140.74 311.25 Q140.66 315 140.65 318.75 Q140.64 322.5 140.72 326.25 Q140.8 330 141 333.75 Q141.19 337.5 141.5 341.25 Q141.81 345 142.2 348.75 Q142.59 352.5 143.04 356.25 L143.48 360" stroke="#4A3223" stroke-width="0.62" fill="none" stroke-linecap="round" opacity="0.74"/><path d="M147.39 0 Q147.39 0 147.89 3.75 Q148.39 7.5 148.83 11.25 Q149.28 15 149.63 18.75 Q149.97 22.5 150.2 26.25 Q150.42 30 150.52 33.75 Q150.63 37.5 150.64 41.25 Q150.64 45 150.6 48.75 Q150.55 52.5 150.48 56.25 Q150.41 60 150.36 63.75 Q150.31 67.5 150.29 71.25 Q150.27 75 150.28 78.75 Q150.28 82.5 150.3 86.25 Q150.31 90 150.3 93.75 Q150.29 97.5 150.22 101.25 Q150.15 105 150.01 108.75 Q149.87 112.5 149.65 116.25 Q149.43 120 149.15 123.75 Q148.87 127.5 148.57 131.25 Q148.27 135 147.99 138.75 Q147.71 142.5 147.5 146.25 Q147.28 150 147.17 153.75 Q147.05 157.5 147.03 161.25 Q147.01 165 147.08 168.75 Q147.15 172.5 147.27 176.25 Q147.39 180 147.51 183.75 Q147.63 187.5 147.7 191.25 Q147.77 195 147.75 198.75 Q147.73 202.5 147.62 206.25 Q147.5 210 147.29 213.75 Q147.07 217.5 146.79 221.25 Q146.51 225 146.21 228.75 Q145.91 232.5 145.63 236.25 Q145.35 240 145.13 243.75 Q144.91 247.5 144.77 251.25 Q144.63 255 144.56 258.75 Q144.49 262.5 144.48 266.25 Q144.47 270 144.49 273.75 Q144.5 277.5 144.51 281.25 Q144.51 285 144.49 288.75 Q144.47 292.5 144.42 296.25 Q144.37 300 144.3 303.75 Q144.23 307.5 144.19 311.25 Q144.14 315 144.14 318.75 Q144.15 322.5 144.26 326.25 Q144.36 330 144.59 333.75 Q144.81 337.5 145.16 341.25 Q145.5 345 145.95 348.75 Q146.39 352.5 146.89 356.25 L147.39 360" stroke="#4A3223" stroke-width="0.54" fill="none" stroke-linecap="round" opacity="0.65"/><path d="M151.92 0 Q151.92 0 152.42 3.75 Q152.91 7.5 153.34 11.25 Q153.77 15 154.09 18.75 Q154.4 22.5 154.59 26.25 Q154.77 30 154.82 33.75 Q154.87 37.5 154.83 41.25 Q154.79 45 154.7 48.75 Q154.6 52.5 154.51 56.25 Q154.42 60 154.37 63.75 Q154.32 67.5 154.33 71.25 Q154.34 75 154.4 78.75 Q154.46 82.5 154.54 86.25 Q154.62 90 154.68 93.75 Q154.73 97.5 154.72 101.25 Q154.71 105 154.61 108.75 Q154.5 112.5 154.3 116.25 Q154.09 120 153.81 123.75 Q153.52 127.5 153.2 131.25 Q152.87 135 152.56 138.75 Q152.25 142.5 152.01 146.25 Q151.77 150 151.64 153.75 Q151.5 157.5 151.49 161.25 Q151.47 165 151.56 168.75 Q151.64 172.5 151.78 176.25 Q151.92 180 152.06 183.75 Q152.2 187.5 152.29 191.25 Q152.37 195 152.36 198.75 Q152.34 202.5 152.2 206.25 Q152.07 210 151.83 213.75 Q151.59 217.5 151.28 221.25 Q150.97 225 150.64 228.75 Q150.32 232.5 150.04 236.25 Q149.75 240 149.55 243.75 Q149.34 247.5 149.24 251.25 Q149.13 255 149.12 258.75 Q149.11 262.5 149.17 266.25 Q149.22 270 149.3 273.75 Q149.38 277.5 149.44 281.25 Q149.5 285 149.51 288.75 Q149.52 292.5 149.47 296.25 Q149.42 300 149.33 303.75 Q149.24 307.5 149.15 311.25 Q149.05 315 149.01 318.75 Q148.97 322.5 149.02 326.25 Q149.07 330 149.26 333.75 Q149.44 337.5 149.76 341.25 Q150.07 345 150.5 348.75 Q150.93 352.5 151.43 356.25 L151.92 360" stroke="#4A3223" stroke-width="0.74" fill="none" stroke-linecap="round" opacity="0.7"/><path d="M157.61 0 Q157.61 0 158.07 3.75 Q158.53 7.5 158.95 11.25 Q159.36 15 159.69 18.75 Q160.01 22.5 160.24 26.25 Q160.46 30 160.58 33.75 Q160.7 37.5 160.74 41.25 Q160.77 45 160.76 48.75 Q160.74 52.5 160.71 56.25 Q160.68 60 160.66 63.75 Q160.64 67.5 160.65 71.25 Q160.66 75 160.69 78.75 Q160.71 82.5 160.74 86.25 Q160.77 90 160.77 93.75 Q160.77 97.5 160.72 101.25 Q160.66 105 160.54 108.75 Q160.41 112.5 160.21 116.25 Q160.01 120 159.75 123.75 Q159.49 127.5 159.2 131.25 Q158.92 135 158.64 138.75 Q158.37 142.5 158.14 146.25 Q157.92 150 157.77 153.75 Q157.63 157.5 157.57 161.25 Q157.5 165 157.51 168.75 Q157.51 172.5 157.56 176.25 Q157.61 180 157.66 183.75 Q157.71 187.5 157.72 191.25 Q157.72 195 157.66 198.75 Q157.59 202.5 157.45 206.25 Q157.3 210 157.07 213.75 Q156.85 217.5 156.57 221.25 Q156.3 225 156.01 228.75 Q155.73 232.5 155.47 236.25 Q155.21 240 155.01 243.75 Q154.81 247.5 154.69 251.25 Q154.56 255 154.51 258.75 Q154.45 262.5 154.45 266.25 Q154.45 270 154.48 273.75 Q154.51 277.5 154.54 281.25 Q154.56 285 154.57 288.75 Q154.58 292.5 154.56 296.25 Q154.54 300 154.51 303.75 Q154.48 307.5 154.46 311.25 Q154.45 315 154.49 318.75 Q154.52 322.5 154.64 326.25 Q154.76 330 154.99 333.75 Q155.21 337.5 155.54 341.25 Q155.86 345 156.28 348.75 Q156.69 352.5 157.15 356.25 L157.61 360" stroke="#4A3223" stroke-width="0.75" fill="none" stroke-linecap="round" opacity="0.75"/><path d="M163.12 0 Q163.12 0 163.48 3.75 Q163.83 7.5 164.14 11.25 Q164.45 15 164.67 18.75 Q164.89 22.5 165.02 26.25 Q165.14 30 165.17 33.75 Q165.19 37.5 165.14 41.25 Q165.08 45 164.99 48.75 Q164.9 52.5 164.8 56.25 Q164.7 60 164.63 63.75 Q164.56 67.5 164.53 71.25 Q164.5 75 164.51 78.75 Q164.52 82.5 164.55 86.25 Q164.57 90 164.58 93.75 Q164.59 97.5 164.56 101.25 Q164.53 105 164.44 108.75 Q164.35 112.5 164.2 116.25 Q164.04 120 163.84 123.75 Q163.64 127.5 163.42 131.25 Q163.2 135 163.01 138.75 Q162.81 142.5 162.68 146.25 Q162.55 150 162.5 153.75 Q162.45 157.5 162.5 161.25 Q162.54 165 162.67 168.75 Q162.79 172.5 162.95 176.25 Q163.12 180 163.29 183.75 Q163.45 187.5 163.57 191.25 Q163.7 195 163.75 198.75 Q163.79 202.5 163.74 206.25 Q163.69 210 163.56 213.75 Q163.43 217.5 163.24 221.25 Q163.04 225 162.82 228.75 Q162.6 232.5 162.4 236.25 Q162.2 240 162.04 243.75 Q161.89 247.5 161.8 251.25 Q161.71 255 161.68 258.75 Q161.65 262.5 161.66 266.25 Q161.67 270 161.7 273.75 Q161.72 277.5 161.73 281.25 Q161.74 285 161.71 288.75 Q161.68 292.5 161.61 296.25 Q161.54 300 161.44 303.75 Q161.34 307.5 161.25 311.25 Q161.16 315 161.11 318.75 Q161.05 322.5 161.07 326.25 Q161.1 330 161.23 333.75 Q161.35 337.5 161.57 341.25 Q161.79 345 162.1 348.75 Q162.41 352.5 162.76 356.25 L163.12 360" stroke="#4A3223" stroke-width="0.58" fill="none" stroke-linecap="round" opacity="0.78"/><path d="M168.02 0 Q168.02 0 168.44 3.75 Q168.85 7.5 169.22 11.25 Q169.59 15 169.87 18.75 Q170.15 22.5 170.32 26.25 Q170.49 30 170.56 33.75 Q170.62 37.5 170.6 41.25 Q170.58 45 170.5 48.75 Q170.42 52.5 170.33 56.25 Q170.23 60 170.14 63.75 Q170.05 67.5 169.99 71.25 Q169.92 75 169.88 78.75 Q169.84 82.5 169.81 86.25 Q169.78 90 169.74 93.75 Q169.69 97.5 169.61 101.25 Q169.52 105 169.39 108.75 Q169.25 112.5 169.06 116.25 Q168.86 120 168.64 123.75 Q168.41 127.5 168.18 131.25 Q167.95 135 167.76 138.75 Q167.56 142.5 167.44 146.25 Q167.31 150 167.28 153.75 Q167.24 157.5 167.31 161.25 Q167.37 165 167.51 168.75 Q167.65 172.5 167.84 176.25 Q168.02 180 168.21 183.75 Q168.39 187.5 168.53 191.25 Q168.67 195 168.74 198.75 Q168.8 202.5 168.77 206.25 Q168.73 210 168.61 213.75 Q168.48 217.5 168.29 221.25 Q168.09 225 167.86 228.75 Q167.63 232.5 167.41 236.25 Q167.18 240 166.99 243.75 Q166.79 247.5 166.66 251.25 Q166.52 255 166.44 258.75 Q166.35 262.5 166.31 266.25 Q166.26 270 166.23 273.75 Q166.2 277.5 166.16 281.25 Q166.12 285 166.06 288.75 Q165.99 292.5 165.9 296.25 Q165.81 300 165.72 303.75 Q165.62 307.5 165.54 311.25 Q165.46 315 165.44 318.75 Q165.42 322.5 165.49 326.25 Q165.55 330 165.72 333.75 Q165.89 337.5 166.17 341.25 Q166.45 345 166.82 348.75 Q167.19 352.5 167.61 356.25 L168.02 360" stroke="#4A3223" stroke-width="0.73" fill="none" stroke-linecap="round" opacity="0.72"/><path d="M171.69 0 Q171.69 0 172.05 3.75 Q172.41 7.5 172.73 11.25 Q173.05 15 173.3 18.75 Q173.54 22.5 173.7 26.25 Q173.86 30 173.93 33.75 Q174 37.5 174 41.25 Q174 45 173.96 48.75 Q173.92 52.5 173.87 56.25 Q173.81 60 173.77 63.75 Q173.72 67.5 173.7 71.25 Q173.68 75 173.68 78.75 Q173.67 82.5 173.68 86.25 Q173.68 90 173.67 93.75 Q173.66 97.5 173.61 101.25 Q173.55 105 173.45 108.75 Q173.34 112.5 173.18 116.25 Q173.02 120 172.82 123.75 Q172.62 127.5 172.41 131.25 Q172.2 135 172.01 138.75 Q171.81 142.5 171.66 146.25 Q171.51 150 171.44 153.75 Q171.36 157.5 171.36 161.25 Q171.36 165 171.43 168.75 Q171.49 172.5 171.59 176.25 Q171.69 180 171.79 183.75 Q171.89 187.5 171.96 191.25 Q172.02 195 172.02 198.75 Q172.02 202.5 171.95 206.25 Q171.87 210 171.72 213.75 Q171.57 217.5 171.38 221.25 Q171.18 225 170.97 228.75 Q170.76 232.5 170.56 236.25 Q170.36 240 170.2 243.75 Q170.04 247.5 169.94 251.25 Q169.83 255 169.78 258.75 Q169.72 262.5 169.71 266.25 Q169.7 270 169.71 273.75 Q169.71 277.5 169.71 281.25 Q169.7 285 169.68 288.75 Q169.66 292.5 169.62 296.25 Q169.57 300 169.52 303.75 Q169.46 307.5 169.42 311.25 Q169.38 315 169.38 318.75 Q169.38 322.5 169.45 326.25 Q169.52 330 169.68 333.75 Q169.84 337.5 170.09 341.25 Q170.33 345 170.65 348.75 Q170.97 352.5 171.33 356.25 L171.69 360" stroke="#4A3223" stroke-width="0.92" fill="none" stroke-linecap="round" opacity="0.57"/><path d="M177.37 0 Q177.37 0 177.89 3.75 Q178.4 7.5 178.86 11.25 Q179.32 15 179.67 18.75 Q180.02 22.5 180.25 26.25 Q180.47 30 180.57 33.75 Q180.67 37.5 180.65 41.25 Q180.64 45 180.56 48.75 Q180.47 52.5 180.36 56.25 Q180.24 60 180.12 63.75 Q180 67.5 179.91 71.25 Q179.81 75 179.74 78.75 Q179.66 82.5 179.59 86.25 Q179.52 90 179.44 93.75 Q179.35 97.5 179.22 101.25 Q179.09 105 178.91 108.75 Q178.72 112.5 178.48 116.25 Q178.23 120 177.96 123.75 Q177.69 127.5 177.42 131.25 Q177.14 135 176.92 138.75 Q176.69 142.5 176.56 146.25 Q176.42 150 176.39 153.75 Q176.36 157.5 176.45 161.25 Q176.54 165 176.72 168.75 Q176.9 172.5 177.14 176.25 Q177.37 180 177.61 183.75 Q177.84 187.5 178.02 191.25 Q178.2 195 178.29 198.75 Q178.38 202.5 178.35 206.25 Q178.32 210 178.19 213.75 Q178.05 217.5 177.83 221.25 Q177.6 225 177.33 228.75 Q177.05 232.5 176.78 236.25 Q176.51 240 176.27 243.75 Q176.02 247.5 175.84 251.25 Q175.65 255 175.52 258.75 Q175.39 262.5 175.31 266.25 Q175.22 270 175.15 273.75 Q175.08 277.5 175.01 281.25 Q174.93 285 174.84 288.75 Q174.74 292.5 174.62 296.25 Q174.5 300 174.39 303.75 Q174.27 307.5 174.19 311.25 Q174.1 315 174.08 318.75 Q174.07 322.5 174.17 326.25 Q174.27 330 174.5 333.75 Q174.72 337.5 175.07 341.25 Q175.42 345 175.88 348.75 Q176.34 352.5 176.86 356.25 L177.37 360" stroke="#4A3223" stroke-width="0.52" fill="none" stroke-linecap="round" opacity="0.95"/><path d="M182.73 0 Q182.73 0 183.16 3.75 Q183.58 7.5 183.95 11.25 Q184.31 15 184.57 18.75 Q184.83 22.5 184.97 26.25 Q185.11 30 185.13 33.75 Q185.15 37.5 185.09 41.25 Q185.02 45 184.91 48.75 Q184.79 52.5 184.68 56.25 Q184.57 60 184.5 63.75 Q184.43 67.5 184.41 71.25 Q184.39 75 184.43 78.75 Q184.46 82.5 184.52 86.25 Q184.57 90 184.61 93.75 Q184.65 97.5 184.64 101.25 Q184.62 105 184.53 108.75 Q184.43 112.5 184.25 116.25 Q184.07 120 183.83 123.75 Q183.58 127.5 183.31 131.25 Q183.04 135 182.8 138.75 Q182.55 142.5 182.37 146.25 Q182.19 150 182.12 153.75 Q182.04 157.5 182.08 161.25 Q182.11 165 182.24 168.75 Q182.36 172.5 182.55 176.25 Q182.73 180 182.92 183.75 Q183.1 187.5 183.23 191.25 Q183.35 195 183.39 198.75 Q183.42 202.5 183.35 206.25 Q183.27 210 183.09 213.75 Q182.91 217.5 182.67 221.25 Q182.42 225 182.15 228.75 Q181.88 232.5 181.64 236.25 Q181.39 240 181.21 243.75 Q181.03 247.5 180.94 251.25 Q180.84 255 180.83 258.75 Q180.81 262.5 180.85 266.25 Q180.89 270 180.95 273.75 Q181 277.5 181.04 281.25 Q181.07 285 181.05 288.75 Q181.03 292.5 180.96 296.25 Q180.89 300 180.78 303.75 Q180.67 307.5 180.56 311.25 Q180.44 315 180.38 318.75 Q180.31 322.5 180.33 326.25 Q180.35 330 180.49 333.75 Q180.63 337.5 180.89 341.25 Q181.15 345 181.52 348.75 Q181.88 352.5 182.31 356.25 L182.73 360" stroke="#4A3223" stroke-width="0.72" fill="none" stroke-linecap="round" opacity="0.73"/><path d="M186.94 0 Q186.94 0 187.39 3.75 Q187.84 7.5 188.23 11.25 Q188.61 15 188.9 18.75 Q189.18 22.5 189.33 26.25 Q189.48 30 189.51 33.75 Q189.54 37.5 189.48 41.25 Q189.41 45 189.3 48.75 Q189.18 52.5 189.07 56.25 Q188.96 60 188.89 63.75 Q188.82 67.5 188.81 71.25 Q188.79 75 188.83 78.75 Q188.86 82.5 188.92 86.25 Q188.98 90 189.02 93.75 Q189.06 97.5 189.05 101.25 Q189.03 105 188.93 108.75 Q188.83 112.5 188.64 116.25 Q188.45 120 188.19 123.75 Q187.93 127.5 187.64 131.25 Q187.35 135 187.08 138.75 Q186.82 142.5 186.63 146.25 Q186.44 150 186.35 153.75 Q186.26 157.5 186.29 161.25 Q186.32 165 186.45 168.75 Q186.57 172.5 186.76 176.25 Q186.94 180 187.13 183.75 Q187.31 187.5 187.44 191.25 Q187.56 195 187.59 198.75 Q187.62 202.5 187.53 206.25 Q187.44 210 187.25 213.75 Q187.06 217.5 186.8 221.25 Q186.53 225 186.24 228.75 Q185.95 232.5 185.69 236.25 Q185.43 240 185.24 243.75 Q185.05 247.5 184.95 251.25 Q184.85 255 184.83 258.75 Q184.82 262.5 184.86 266.25 Q184.9 270 184.96 273.75 Q185.02 277.5 185.06 281.25 Q185.09 285 185.08 288.75 Q185.06 292.5 184.99 296.25 Q184.92 300 184.81 303.75 Q184.7 307.5 184.58 311.25 Q184.47 315 184.41 318.75 Q184.34 322.5 184.37 326.25 Q184.4 330 184.55 333.75 Q184.7 337.5 184.99 341.25 Q185.27 345 185.66 348.75 Q186.04 352.5 186.49 356.25 L186.94 360" stroke="#4A3223" stroke-width="0.52" fill="none" stroke-linecap="round" opacity="0.84"/><path d="M192.73 0 Q192.73 0 193.11 3.75 Q193.49 7.5 193.83 11.25 Q194.16 15 194.42 18.75 Q194.67 22.5 194.83 26.25 Q194.98 30 195.04 33.75 Q195.09 37.5 195.07 41.25 Q195.04 45 194.96 48.75 Q194.89 52.5 194.8 56.25 Q194.71 60 194.63 63.75 Q194.54 67.5 194.48 71.25 Q194.42 75 194.38 78.75 Q194.34 82.5 194.32 86.25 Q194.29 90 194.25 93.75 Q194.21 97.5 194.13 101.25 Q194.05 105 193.93 108.75 Q193.8 112.5 193.63 116.25 Q193.45 120 193.25 123.75 Q193.04 127.5 192.83 131.25 Q192.62 135 192.45 138.75 Q192.27 142.5 192.16 146.25 Q192.04 150 192.02 153.75 Q191.99 157.5 192.05 161.25 Q192.11 165 192.25 168.75 Q192.38 172.5 192.56 176.25 Q192.73 180 192.91 183.75 Q193.08 187.5 193.22 191.25 Q193.35 195 193.41 198.75 Q193.47 202.5 193.45 206.25 Q193.42 210 193.31 213.75 Q193.19 217.5 193.02 221.25 Q192.84 225 192.63 228.75 Q192.42 232.5 192.21 236.25 Q192.01 240 191.83 243.75 Q191.66 247.5 191.54 251.25 Q191.41 255 191.33 258.75 Q191.25 262.5 191.21 266.25 Q191.17 270 191.15 273.75 Q191.12 277.5 191.08 281.25 Q191.04 285 190.98 288.75 Q190.92 292.5 190.83 296.25 Q190.75 300 190.66 303.75 Q190.57 307.5 190.5 311.25 Q190.42 315 190.4 318.75 Q190.37 322.5 190.43 326.25 Q190.48 330 190.64 333.75 Q190.79 337.5 191.05 341.25 Q191.3 345 191.64 348.75 Q191.97 352.5 192.35 356.25 L192.73 360" stroke="#4A3223" stroke-width="0.65" fill="none" stroke-linecap="round" opacity="0.96"/><path d="M198.04 0 Q198.04 0 198.64 3.75 Q199.24 7.5 199.76 11.25 Q200.28 15 200.66 18.75 Q201.04 22.5 201.25 26.25 Q201.45 30 201.49 33.75 Q201.53 37.5 201.44 41.25 Q201.34 45 201.17 48.75 Q201 52.5 200.82 56.25 Q200.64 60 200.5 63.75 Q200.36 67.5 200.28 71.25 Q200.2 75 200.18 78.75 Q200.16 82.5 200.17 86.25 Q200.18 90 200.17 93.75 Q200.16 97.5 200.09 101.25 Q200.02 105 199.85 108.75 Q199.68 112.5 199.42 116.25 Q199.15 120 198.82 123.75 Q198.48 127.5 198.13 131.25 Q197.77 135 197.47 138.75 Q197.16 142.5 196.97 146.25 Q196.77 150 196.73 153.75 Q196.68 157.5 196.8 161.25 Q196.91 165 197.16 168.75 Q197.4 172.5 197.72 176.25 Q198.04 180 198.36 183.75 Q198.68 187.5 198.93 191.25 Q199.17 195 199.29 198.75 Q199.4 202.5 199.36 206.25 Q199.31 210 199.12 213.75 Q198.92 217.5 198.62 221.25 Q198.31 225 197.96 228.75 Q197.6 232.5 197.27 236.25 Q196.93 240 196.67 243.75 Q196.4 247.5 196.23 251.25 Q196.06 255 195.99 258.75 Q195.92 262.5 195.91 266.25 Q195.9 270 195.91 273.75 Q195.92 277.5 195.9 281.25 Q195.88 285 195.8 288.75 Q195.72 292.5 195.58 296.25 Q195.44 300 195.26 303.75 Q195.08 307.5 194.91 311.25 Q194.74 315 194.65 318.75 Q194.55 322.5 194.59 326.25 Q194.63 330 194.83 333.75 Q195.04 337.5 195.42 341.25 Q195.8 345 196.32 348.75 Q196.84 352.5 197.44 356.25 L198.04 360" stroke="#4A3223" stroke-width="1.04" fill="none" stroke-linecap="round" opacity="0.97"/><ellipse cx="132.52" cy="210" rx="9" ry="18" stroke="#4A3223" stroke-width="0.85" fill="none" opacity="0.77"/><ellipse cx="132.53" cy="210" rx="5.87" ry="11.74" stroke="#4A3223" stroke-width="0.68" fill="none" opacity="0.81"/><ellipse cx="131.64" cy="210" rx="2.07" ry="4.13" stroke="#4A3223" stroke-width="0.53" fill="none" opacity="0.87"/><ellipse cx="132" cy="210" rx="1.08" ry="2.52" fill="#4A3223" opacity="0.75"/></svg>