<svg xmlns="http://www.w3.org/2000/svg" width="240" height="480" viewBox="0 0 240 480"><path d="M4.23 0 Q4.23 0 4.85 5 Q5.47 10 6.03 15 Q6.58 20 7.02 25 Q7.45 30 7.74 35 Q8.03 40 8.18 45 Q8.33 50 8.37 55 Q8.4 60 8.37 65 Q8.34 70 8.29 75 Q8.24 80 8.22 85 Q8.19 90 8.21 95 Q8.22 100 8.27 105 Q8.31 110 8.37 115 Q8.42 120 8.43 125 Q8.45 130 8.39 135 Q8.33 140 8.17 145 Q8.01 150 7.74 155 Q7.47 160 7.12 165 Q6.76 170 6.37 175 Q5.98 180 5.61 185 Q5.23 190 4.92 195 Q4.61 200 4.41 205 Q4.21 210 4.13 215 Q4.05 220 4.06 225 Q4.08 230 4.16 235 Q4.23 240 4.31 245 Q4.38 250 4.39 255 Q4.41 260 4.33 265 Q4.25 270 4.05 275 Q3.85 280 3.54 285 Q3.23 290 2.86 295 Q2.48 300 2.09 305 Q1.7 310 1.35 315 Q0.99 320 0.72 325 Q0.45 330 0.29 335 Q0.13 340 0.07 345 Q0.01 350 0.03 355 Q0.04 360 0.1 365 Q0.15 370 0.2 375 Q0.24 380 0.26 385 Q0.27 390 0.25 395 Q0.22 400 0.17 405 Q0.12 410 0.09 415 Q0.06 420 0.1 425 Q0.13 430 0.28 435 Q0.43 440 0.72 445 Q1.01 450 1.44 455 Q1.88 460 2.44 465 Q2.99 470 3.61 475 L4.23 480" stroke="#4A3223" stroke-width="0.44" fill="none" stroke-linecap="round" opacity="1"/><path d="M13.21 0 Q13.21 0 13.72 5 Q14.22 10 14.67 15 Q15.11 20 15.46 25 Q15.81 30 16.04 35 Q16.27 40 16.37 45 Q16.47 50 16.47 55 Q16.46 60 16.38 65 Q16.3 70 16.19 75 Q16.08 80 15.96 85 Q15.84 90 15.74 95 Q15.64 100 15.55 105 Q15.46 110 15.38 115 Q15.29 120 15.19 125 Q15.09 130 14.95 135 Q14.81 140 14.62 145 Q14.43 150 14.19 155 Q13.95 160 13.68 165 Q13.42 170 13.17 175 Q12.91 180 12.7 185 Q12.49 190 12.37 195 Q12.24 200 12.22 205 Q12.2 210 12.29 215 Q12.38 220 12.57 225 Q12.75 230 12.98 235 Q13.21 240 13.44 245 Q13.67 250 13.86 255 Q14.04 260 14.13 265 Q14.22 270 14.2 275 Q14.18 280 14.06 285 Q13.93 290 13.72 295 Q13.51 300 13.26 305 Q13 310 12.74 315 Q12.47 320 12.23 325 Q11.99 330 11.8 335 Q11.61 340 11.47 345 Q11.33 350 11.23 355 Q11.13 360 11.05 365 Q10.96 370 10.87 375 Q10.78 380 10.68 385 Q10.58 390 10.46 395 Q10.34 400 10.23 405 Q10.12 410 10.04 415 Q9.96 420 9.96 425 Q9.95 430 10.05 435 Q10.15 440 10.38 445 Q10.61 450 10.96 455 Q11.31 460 11.76 465 Q12.2 470 12.71 475 L13.21 480" stroke="#4A3223" stroke-width="0.89" fill="none" stroke-linecap="round" opacity="0.73"/><path d="M21.11 0 Q21.11 0 21.77 5 Q22.43 10 23 15 Q23.57 20 24 25 Q24.42 30 24.66 35 Q24.89 40 24.95 45 Q25 50 24.91 55 Q24.82 60 24.65 65 Q24.47 70 24.28 75 Q24.09 80 23.94 85 Q23.79 90 23.7 95 Q23.6 100 23.57 105 Q23.53 110 23.53 115 Q23.52 120 23.49 125 Q23.46 130 23.37 135 Q23.27 140 23.08 145 Q22.89 150 22.6 155 Q22.3 160 21.94 165 Q21.57 170 21.19 175 Q20.81 180 20.49 185 Q20.16 190 19.95 195 Q19.74 200 19.7 205 Q19.65 210 19.77 215 Q19.89 220 20.16 225 Q20.42 230 20.77 235 Q21.11 240 21.46 245 Q21.8 250 22.07 255 Q22.33 260 22.45 265 Q22.57 270 22.53 275 Q22.48 280 22.27 285 Q22.06 290 21.74 295 Q21.41 300 21.03 305 Q20.65 310 20.29 315 Q19.92 320 19.63 325 Q19.33 330 19.14 335 Q18.95 340 18.86 345 Q18.76 350 18.73 355 Q18.7 360 18.7 365 Q18.69 370 18.66 375 Q18.62 380 18.52 385 Q18.43 390 18.28 395 Q18.13 400 17.94 405 Q17.75 410 17.58 415 Q17.4 420 17.31 425 Q17.22 430 17.27 435 Q17.33 440 17.56 445 Q17.8 450 18.23 455 Q18.65 460 19.22 465 Q19.79 470 20.45 475 L21.11 480" stroke="#4A3223" stroke-width="0.64" fill="none" stroke-linecap="round" opacity="0.95"/><path d="M29.05 0 Q29.05 0 29.79 5 Q30.53 10 31.18 15 Q31.83 20 32.34 25 Q32.84 30 33.17 35 Q33.49 40 33.63 45 Q33.77 50 33.76 55 Q33.75 60 33.66 65 Q33.57 70 33.45 75 Q33.33 80 33.23 85 Q33.13 90 33.08 95 Q33.03 100 33.03 105 Q33.02 110 33.03 115 Q33.04 120 33.01 125 Q32.98 130 32.88 135 Q32.77 140 32.55 145 Q32.33 150 32 155 Q31.68 160 31.27 165 Q30.86 170 30.42 175 Q29.98 180 29.59 185 Q29.19 190 28.9 195 Q28.6 200 28.46 205 Q28.31 210 28.32 215 Q28.33 220 28.48 225 Q28.62 230 28.84 235 Q29.05 240 29.27 245 Q29.48 250 29.63 255 Q29.77 260 29.78 265 Q29.79 270 29.65 275 Q29.5 280 29.21 285 Q28.91 290 28.52 295 Q28.12 300 27.68 305 Q27.24 310 26.83 315 Q26.42 320 26.1 325 Q25.77 330 25.55 335 Q25.33 340 25.23 345 Q25.12 350 25.09 355 Q25.06 360 25.07 365 Q25.08 370 25.08 375 Q25.07 380 25.02 385 Q24.97 390 24.87 395 Q24.77 400 24.65 405 Q24.53 410 24.44 415 Q24.35 420 24.34 425 Q24.33 430 24.47 435 Q24.61 440 24.94 445 Q25.26 450 25.77 455 Q26.27 460 26.92 465 Q27.57 470 28.31 475 L29.05 480" stroke="#4A3223" stroke-width="0.73" fill="none" stroke-linecap="round" opacity="0.76"/><path d="M35.52 0 Q35.52 0 36.06 5 Q36.6 10 37.07 15 Q37.54 20 37.88 25 Q38.22 30 38.41 35 Q38.59 40 38.63 45 Q38.66 50 38.58 55 Q38.51 60 38.39 65 Q38.26 70 38.14 75 Q38.03 80 37.98 85 Q37.92 90 37.94 95 Q37.95 100 38.03 105 Q38.11 110 38.22 115 Q38.33 120 38.42 125 Q38.51 130 38.52 135 Q38.53 140 38.43 145 Q38.33 150 38.11 155 Q37.88 160 37.56 165 Q37.24 170 36.88 175 Q36.51 180 36.16 185 Q35.81 190 35.54 195 Q35.27 200 35.13 205 Q34.98 210 34.97 215 Q34.96 220 35.07 225 Q35.17 230 35.35 235 Q35.52 240 35.7 245 Q35.87 250 35.97 255 Q36.08 260 36.07 265 Q36.06 270 35.92 275 Q35.77 280 35.5 285 Q35.23 290 34.88 295 Q34.53 300 34.17 305 Q33.8 310 33.48 315 Q33.16 320 32.94 325 Q32.71 330 32.61 335 Q32.51 340 32.52 345 Q32.53 350 32.62 355 Q32.71 360 32.82 365 Q32.93 370 33.01 375 Q33.09 380 33.11 385 Q33.12 390 33.07 395 Q33.01 400 32.89 405 Q32.78 410 32.66 415 Q32.53 420 32.46 425 Q32.38 430 32.42 435 Q32.45 440 32.64 445 Q32.82 450 33.16 455 Q33.5 460 33.97 465 Q34.44 470 34.98 475 L35.52 480" stroke="#4A3223" stroke-width="0.78" fill="none" stroke-linecap="round" opacity="0.82"/><path d="M43.92 0 Q43.92 0 44.56 5 Q45.19 10 45.76 15 Q46.32 20 46.77 25 Q47.21 30 47.51 35 Q47.8 40 47.95 45 Q48.09 50 48.13 55 Q48.16 60 48.13 65 Q48.1 70 48.05 75 Q48 80 47.98 85 Q47.96 90 47.98 95 Q48 100 48.06 105 Q48.11 110 48.18 115 Q48.24 120 48.27 125 Q48.3 130 48.25 135 Q48.19 140 48.03 145 Q47.87 150 47.6 155 Q47.33 160 46.97 165 Q46.6 170 46.2 175 Q45.79 180 45.4 185 Q45.01 190 44.69 195 Q44.36 200 44.15 205 Q43.94 210 43.85 215 Q43.76 220 43.77 225 Q43.78 230 43.85 235 Q43.92 240 43.99 245 Q44.06 250 44.07 255 Q44.08 260 43.99 265 Q43.9 270 43.69 275 Q43.48 280 43.16 285 Q42.83 290 42.44 295 Q42.05 300 41.65 305 Q41.24 310 40.88 315 Q40.51 320 40.24 325 Q39.97 330 39.81 335 Q39.65 340 39.6 345 Q39.54 350 39.57 355 Q39.6 360 39.67 365 Q39.73 370 39.78 375 Q39.84 380 39.86 385 Q39.88 390 39.86 395 Q39.84 400 39.79 405 Q39.74 410 39.71 415 Q39.68 420 39.72 425 Q39.75 430 39.89 435 Q40.04 440 40.34 445 Q40.63 450 41.08 455 Q41.52 460 42.09 465 Q42.65 470 43.29 475 L43.92 480" stroke="#4A3223" stroke-width="1" fill="none" stroke-linecap="round" opacity="0.98"/><path d="M51.85 0 Q51.85 0 52.45 5 Q53.04 10 53.55 15 Q54.06 20 54.43 25 Q54.79 30 54.98 35 Q55.17 40 55.2 45 Q55.23 50 55.14 55 Q55.05 60 54.91 65 Q54.77 70 54.64 75 Q54.51 80 54.46 85 Q54.4 90 54.43 95 Q54.46 100 54.57 105 Q54.68 110 54.83 115 Q54.97 120 55.09 125 Q55.21 130 55.24 135 Q55.27 140 55.17 145 Q55.07 150 54.83 155 Q54.59 160 54.24 165 Q53.89 170 53.48 175 Q53.06 180 52.67 185 Q52.27 190 51.96 195 Q51.65 200 51.47 205 Q51.3 210 51.28 215 Q51.26 220 51.37 225 Q51.48 230 51.67 235 Q51.85 240 52.04 245 Q52.22 250 52.33 255 Q52.44 260 52.42 265 Q52.4 270 52.22 275 Q52.05 280 51.74 285 Q51.43 290 51.04 295 Q50.64 300 50.23 305 Q49.81 310 49.46 315 Q49.11 320 48.87 325 Q48.63 330 48.53 335 Q48.43 340 48.46 345 Q48.49 350 48.61 355 Q48.73 360 48.88 365 Q49.02 370 49.13 375 Q49.24 380 49.27 385 Q49.3 390 49.25 395 Q49.19 400 49.06 405 Q48.93 410 48.79 415 Q48.65 420 48.56 425 Q48.47 430 48.5 435 Q48.53 440 48.72 445 Q48.91 450 49.28 455 Q49.64 460 50.15 465 Q50.66 470 51.26 475 L51.85 480" stroke="#4A3223" stroke-width="0.74" fill="none" stroke-linecap="round" opacity="0.71"/><path d="M60.97 0 Q60.97 0 61.56 5 Q62.14 10 62.67 15 Q63.19 20 63.61 25 Q64.02 30 64.31 35 Q64.59 40 64.74 45 Q64.89 50 64.93 55 Q64.97 60 64.94 65 Q64.91 70 64.85 75 Q64.8 80 64.75 85 Q64.69 90 64.66 95 Q64.64 100 64.63 105 Q64.62 110 63.65 115 Q62.67 120 61.58 125 Q60.48 130 59.67 135 Q58.86 140 58.43 145 Q57.99 150 57.98 155 Q57.97 160 58.36 165 Q58.75 170 59.46 175 Q60.17 180 60.83 185 Q61.48 190 61.24 195 Q60.99 200 60.85 205 Q60.7 210 60.67 215 Q60.63 220 60.69 225 Q60.75 230 60.86 235 Q60.97 240 61.08 245 Q61.19 250 61.25 255 Q61.31 260 61.28 265 Q61.24 270 61.1 275 Q60.95 280 60.71 285 Q60.46 290 60.15 295 Q59.83 300 59.49 305 Q59.15 310 58.83 315 Q58.5 320 58.24 325 Q57.98 330 57.8 335 Q57.62 340 57.52 345 Q57.41 350 57.38 355 Q57.34 360 57.33 365 Q57.32 370 57.31 375 Q57.3 380 57.28 385 Q57.25 390 57.2 395 Q57.14 400 57.09 405 Q57.03 410 57 415 Q56.97 420 57.01 425 Q57.05 430 57.2 435 Q57.35 440 57.64 445 Q57.92 450 58.34 455 Q58.75 460 59.28 465 Q59.8 470 60.39 475 L60.97 480" stroke="#4A3223" stroke-width="0.67" fill="none" stroke-linecap="round" opacity="0.85"/><path d="M67.78 0 Q67.78 0 68.3 5 Q68.82 10 69.29 15 Q69.75 20 70.12 25 Q70.48 30 70.73 35 Q70.98 40 71.11 45 Q71.24 50 71.27 55 Q71.3 60 71.27 65 Q71.23 70 71.16 75 Q71.1 80 71.04 85 Q70.97 90 70.93 95 Q70.89 100 70.86 105 Q70.83 110 68.73 115 Q66.63 120 64.33 125 Q62.02 130 60.4 135 Q58.77 140 58.06 145 Q57.35 150 57.65 155 Q57.95 160 59.2 165 Q60.44 170 62.4 175 Q64.35 180 66.16 185 Q67.97 190 67.78 195 Q67.58 200 67.47 205 Q67.37 210 67.37 215 Q67.37 220 67.45 225 Q67.53 230 67.66 235 Q67.78 240 67.91 245 Q68.03 250 68.11 255 Q68.19 260 68.19 265 Q68.19 270 68.09 275 Q67.98 280 67.79 285 Q67.59 290 67.33 295 Q67.06 300 66.77 305 Q66.47 310 66.19 315 Q65.9 320 65.67 325 Q65.43 330 65.26 335 Q65.09 340 64.99 345 Q64.88 350 64.83 355 Q64.78 360 64.76 365 Q64.73 370 64.7 375 Q64.67 380 64.63 385 Q64.59 390 64.53 395 Q64.46 400 64.4 405 Q64.33 410 64.3 415 Q64.26 420 64.29 425 Q64.32 430 64.45 435 Q64.58 440 64.83 445 Q65.08 450 65.44 455 Q65.81 460 66.28 465 Q66.74 470 67.26 475 L67.78 480" stroke="#4A3223" stroke-width="0.45" fill="none" stroke-linecap="round" opacity="0.68"/><path d="M74.6 0 Q74.6 0 75.21 5 Q75.81 10 76.37 15 Q76.92 20 77.37 25 Q77.82 30 78.16 35 Q78.49 40 78.69 45 Q78.89 50 78.99 55 Q79.08 60 79.09 65 Q79.1 70 79.07 75 Q79.03 80 78.98 85 Q78.93 90 78.88 95 Q78.82 100 78.76 105 Q78.71 110 80.33 115 Q81.95 120 83.68 125 Q85.41 130 86.49 135 Q87.57 140 87.79 145 Q88.01 150 87.29 155 Q86.57 160 85.01 165 Q83.44 170 81.28 175 Q79.11 180 77.13 185 Q75.14 190 74.91 195 Q74.69 200 74.56 205 Q74.42 210 74.38 215 Q74.34 220 74.38 225 Q74.42 230 74.51 235 Q74.6 240 74.69 245 Q74.78 250 74.82 255 Q74.86 260 74.82 265 Q74.78 270 74.65 275 Q74.51 280 74.29 285 Q74.06 290 73.76 295 Q73.46 300 73.13 305 Q72.8 310 72.48 315 Q72.16 320 71.88 325 Q71.59 330 71.37 335 Q71.15 340 71 345 Q70.84 350 70.74 355 Q70.63 360 70.56 365 Q70.49 370 70.44 375 Q70.38 380 70.32 385 Q70.27 390 70.22 395 Q70.17 400 70.13 405 Q70.1 410 70.11 415 Q70.12 420 70.22 425 Q70.31 430 70.51 435 Q70.71 440 71.04 445 Q71.38 450 71.83 455 Q72.28 460 72.84 465 Q73.39 470 74 475 L74.6 480" stroke="#4A3223" stroke-width="0.4" fill="none" stroke-linecap="round" opacity="0.58"/><path d="M82.77 0 Q82.77 0 83.35 5 Q83.92 10 84.43 15 Q84.94 20 85.33 25 Q85.72 30 85.97 35 Q86.21 40 86.32 45 Q86.42 50 86.41 55 Q86.39 60 86.31 65 Q86.22 70 86.1 75 Q85.99 80 85.89 85 Q85.79 90 85.73 95 Q85.66 100 85.63 105 Q85.59 110 85.93 115 Q86.27 120 86.62 125 Q86.96 130 87.12 135 Q87.28 140 87.2 145 Q87.11 150 86.76 155 Q86.4 160 85.82 165 Q85.24 170 84.52 175 Q83.8 180 83.15 185 Q82.5 190 82.3 195 Q82.1 200 82.03 205 Q81.95 210 82 215 Q82.04 220 82.2 225 Q82.35 230 82.56 235 Q82.77 240 82.98 245 Q83.19 250 83.35 255 Q83.5 260 83.55 265 Q83.59 270 83.52 275 Q83.44 280 83.24 285 Q83.04 290 82.76 295 Q82.47 300 82.14 305 Q81.81 310 81.5 315 Q81.18 320 80.92 325 Q80.66 330 80.48 335 Q80.3 340 80.19 345 Q80.09 350 80.04 355 Q79.99 360 79.97 365 Q79.95 370 79.91 375 Q79.88 380 79.82 385 Q79.75 390 79.65 395 Q79.55 400 79.44 405 Q79.32 410 79.24 415 Q79.15 420 79.14 425 Q79.12 430 79.22 435 Q79.33 440 79.57 445 Q79.82 450 80.21 455 Q80.6 460 81.11 465 Q81.62 470 82.2 475 L82.77 480" stroke="#4A3223" stroke-width="0.62" fill="none" stroke-linecap="round" opacity="0.92"/><path d="M91.59 0 Q91.59 0 92.07 5 Q92.55 10 92.99 15 Q93.42 20 93.77 25 Q94.12 30 94.36 35 Q94.6 40 94.73 45 Q94.86 50 94.91 55 Q94.95 60 94.93 65 Q94.91 70 94.86 75 Q94.81 80 94.76 85 Q94.71 90 94.67 95 Q94.62 100 94.59 105 Q94.56 110 94.53 115 Q94.5 120 94.44 125 Q94.38 130 94.28 135 Q94.17 140 94.01 145 Q93.85 150 93.63 155 Q93.4 160 93.14 165 Q92.88 170 92.61 175 Q92.34 180 92.1 185 Q91.85 190 91.67 195 Q91.49 200 91.39 205 Q91.29 210 91.28 215 Q91.26 220 91.33 225 Q91.39 230 91.49 235 Q91.59 240 91.69 245 Q91.79 250 91.86 255 Q91.92 260 91.91 265 Q91.89 270 91.79 275 Q91.69 280 91.51 285 Q91.33 290 91.09 295 Q90.84 300 90.57 305 Q90.3 310 90.04 315 Q89.78 320 89.56 325 Q89.33 330 89.17 335 Q89.01 340 88.91 345 Q88.8 350 88.74 355 Q88.68 360 88.65 365 Q88.62 370 88.59 375 Q88.56 380 88.52 385 Q88.47 390 88.42 395 Q88.37 400 88.32 405 Q88.27 410 88.25 415 Q88.23 420 88.28 425 Q88.32 430 88.45 435 Q88.58 440 88.82 445 Q89.06 450 89.41 455 Q89.76 460 90.2 465 Q90.63 470 91.11 475 L91.59 480" stroke="#4A3223" stroke-width="0.65" fill="none" stroke-linecap="round" opacity="0.97"/><path d="M100 0 Q100 0 100.56 5 Q101.12 10 101.62 15 Q102.11 20 102.49 25 Q102.87 30 103.11 35 Q103.34 40 103.44 45 Q103.53 50 103.52 55 Q103.51 60 103.44 65 Q103.37 70 103.29 75 Q103.21 80 103.17 85 Q103.12 90 103.12 95 Q103.12 100 103.17 105 Q103.21 110 103.27 115 Q103.33 120 103.37 125 Q103.4 130 103.36 135 Q103.32 140 103.18 145 Q103.04 150 102.8 155 Q102.56 160 102.24 165 Q101.92 170 101.56 175 Q101.2 180 100.87 185 Q100.53 190 100.26 195 Q99.99 200 99.84 205 Q99.68 210 99.65 215 Q99.61 220 99.68 225 Q99.75 230 99.88 235 Q100 240 100.13 245 Q100.25 250 100.32 255 Q100.39 260 100.35 265 Q100.32 270 100.17 275 Q100.01 280 99.74 285 Q99.47 290 99.14 295 Q98.8 300 98.44 305 Q98.08 310 97.76 315 Q97.44 320 97.2 325 Q96.96 330 96.82 335 Q96.68 340 96.64 345 Q96.6 350 96.64 355 Q96.67 360 96.73 365 Q96.79 370 96.84 375 Q96.88 380 96.88 385 Q96.88 390 96.84 395 Q96.79 400 96.71 405 Q96.63 410 96.56 415 Q96.49 420 96.48 425 Q96.47 430 96.57 435 Q96.66 440 96.9 445 Q97.13 450 97.51 455 Q97.89 460 98.39 465 Q98.88 470 99.44 475 L100 480" stroke="#4A3223" stroke-width="0.48" fill="none" stroke-linecap="round" opacity="0.8"/><path d="M107.85 0 Q107.85 0 108.35 5 Q108.85 10 109.29 15 Q109.74 20 110.09 25 Q110.43 30 110.65 35 Q110.87 40 110.97 45 Q111.07 50 111.07 55 Q111.07 60 111.01 65 Q110.96 70 110.88 75 Q110.8 80 110.74 85 Q110.67 90 110.64 95 Q110.6 100 110.59 105 Q110.58 110 110.58 115 Q110.58 120 110.56 125 Q110.53 130 110.45 135 Q110.37 140 110.22 145 Q110.07 150 109.85 155 Q109.63 160 109.35 165 Q109.07 170 108.78 175 Q108.49 180 108.22 185 Q107.95 190 107.76 195 Q107.56 200 107.46 205 Q107.36 210 107.37 215 Q107.38 220 107.47 225 Q107.56 230 107.71 235 Q107.85 240 108 245 Q108.14 250 108.23 255 Q108.32 260 108.33 265 Q108.34 270 108.24 275 Q108.14 280 107.95 285 Q107.75 290 107.48 295 Q107.21 300 106.92 305 Q106.63 310 106.35 315 Q106.07 320 105.85 325 Q105.63 330 105.48 335 Q105.33 340 105.25 345 Q105.17 350 105.15 355 Q105.12 360 105.12 365 Q105.12 370 105.11 375 Q105.1 380 105.07 385 Q105.03 390 104.97 395 Q104.9 400 104.82 405 Q104.74 410 104.69 415 Q104.63 420 104.63 425 Q104.63 430 104.73 435 Q104.83 440 105.05 445 Q105.27 450 105.62 455 Q105.96 460 106.41 465 Q106.85 470 107.35 475 L107.85 480" stroke="#4A3223" stroke-width="0.6" fill="none" stroke-linecap="round" opacity="1"/><path d="M116.43 0 Q116.43 0 117.15 5 Q117.86 10 118.5 15 Q119.14 20 119.64 25 Q120.13 30 120.45 35 Q120.77 40 120.92 45 Q121.06 50 121.06 55 Q121.06 60 120.97 65 Q120.88 70 120.76 75 Q120.64 80 120.54 85 Q120.43 90 120.37 95 Q120.3 100 120.27 105 Q120.23 110 120.21 115 Q120.19 120 120.14 125 Q120.08 130 119.96 135 Q119.83 140 119.6 145 Q119.38 150 119.06 155 Q118.73 160 118.34 165 Q117.94 170 117.53 175 Q117.12 180 116.75 185 Q116.38 190 116.12 195 Q115.85 200 115.73 205 Q115.61 210 115.64 215 Q115.67 220 115.83 225 Q115.98 230 116.21 235 Q116.43 240 116.66 245 Q116.88 250 117.04 255 Q117.19 260 117.22 265 Q117.25 270 117.13 275 Q117.01 280 116.75 285 Q116.48 290 116.11 295 Q115.74 300 115.33 305 Q114.92 310 114.53 315 Q114.13 320 113.81 325 Q113.48 330 113.26 335 Q113.03 340 112.91 345 Q112.78 350 112.73 355 Q112.67 360 112.65 365 Q112.63 370 112.6 375 Q112.56 380 112.5 385 Q112.43 390 112.33 395 Q112.22 400 112.1 405 Q111.98 410 111.89 415 Q111.8 420 111.8 425 Q111.8 430 111.95 435 Q112.09 440 112.41 445 Q112.73 450 113.23 455 Q113.72 460 114.36 465 Q115 470 115.72 475 L116.43 480" stroke="#4A3223" stroke-width="0.89" fill="none" stroke-linecap="round" opacity="0.6"/><path d="M123.75 0 Q123.75 0 124.33 5 Q124.91 10 125.42 15 Q125.93 20 126.32 25 Q126.7 30 126.93 35 Q127.15 40 127.22 45 Q127.29 50 127.24 55 Q127.18 60 127.05 65 Q126.91 70 126.74 75 Q126.57 80 126.42 85 Q126.27 90 126.15 95 Q126.03 100 125.96 105 Q125.88 110 125.82 115 Q125.75 120 125.67 125 Q125.59 130 125.46 135 Q125.33 140 125.13 145 Q124.93 150 124.66 155 Q124.39 160 124.08 165 Q123.76 170 123.45 175 Q123.14 180 122.89 185 Q122.64 190 122.5 195 Q122.35 200 122.34 205 Q122.33 210 122.47 215 Q122.6 220 122.85 225 Q123.11 230 123.43 235 Q123.75 240 124.07 245 Q124.39 250 124.65 255 Q124.9 260 125.04 265 Q125.17 270 125.16 275 Q125.15 280 125.01 285 Q124.86 290 124.61 295 Q124.36 300 124.05 305 Q123.74 310 123.43 315 Q123.11 320 122.84 325 Q122.57 330 122.37 335 Q122.17 340 122.04 345 Q121.91 350 121.83 355 Q121.75 360 121.69 365 Q121.62 370 121.55 375 Q121.47 380 121.35 385 Q121.23 390 121.08 395 Q120.93 400 120.76 405 Q120.59 410 120.46 415 Q120.32 420 120.26 425 Q120.21 430 120.28 435 Q120.35 440 120.57 445 Q120.8 450 121.19 455 Q121.57 460 122.08 465 Q122.59 470 123.17 475 L123.75 480" stroke="#4A3223" stroke-width="0.74" fill="none" stroke-linecap="round" opacity="1"/><path d="M132.33 0 Q132.33 0 132.99 5 Q133.64 10 134.22 15 Q134.8 20 135.24 25 Q135.68 30 135.96 35 Q136.24 40 136.35 45 Q136.46 50 136.43 55 Q136.4 60 136.29 65 Q136.17 70 136.01 75 Q135.86 80 135.72 85 Q135.57 90 135.46 95 Q135.35 100 135.27 105 Q135.19 110 135.13 115 Q135.06 120 134.97 125 Q134.88 130 134.73 135 Q134.58 140 134.36 145 Q134.13 150 133.82 155 Q133.52 160 133.17 165 Q132.82 170 132.47 175 Q132.11 180 131.82 185 Q131.52 190 131.34 195 Q131.15 200 131.11 205 Q131.06 210 131.17 215 Q131.28 220 131.51 225 Q131.73 230 132.03 235 Q132.33 240 132.63 245 Q132.93 250 133.16 255 Q133.38 260 133.49 265 Q133.6 270 133.56 275 Q133.51 280 133.32 285 Q133.14 290 132.85 295 Q132.55 300 132.2 305 Q131.84 310 131.49 315 Q131.14 320 130.83 325 Q130.53 330 130.31 335 Q130.08 340 129.93 345 Q129.78 350 129.69 355 Q129.6 360 129.54 365 Q129.47 370 129.39 375 Q129.31 380 129.2 385 Q129.09 390 128.95 395 Q128.8 400 128.65 405 Q128.49 410 128.38 415 Q128.26 420 128.23 425 Q128.2 430 128.31 435 Q128.42 440 128.7 445 Q128.98 450 129.42 455 Q129.86 460 130.44 465 Q131.02 470 131.68 475 L132.33 480" stroke="#4A3223" stroke-width="0.63" fill="none" stroke-linecap="round" opacity="0.86"/><path d="M141.03 0 Q141.03 0 141.57 5 Q142.1 10 142.58 15 Q143.06 20 143.44 25 Q143.81 30 144.06 35 Q144.3 40 144.42 45 Q144.53 50 144.54 55 Q144.55 60 144.5 65 Q144.44 70 144.36 75 Q144.27 80 144.19 85 Q144.11 90 144.06 95 Q144.01 100 143.99 105 Q143.96 110 143.94 115 Q143.91 120 143.87 125 Q143.82 130 143.72 135 Q143.62 140 143.45 145 Q143.28 150 143.04 155 Q142.79 160 142.5 165 Q142.2 170 141.89 175 Q141.59 180 141.32 185 Q141.04 190 140.84 195 Q140.64 200 140.55 205 Q140.46 210 140.48 215 Q140.49 220 140.6 225 Q140.71 230 140.87 235 Q141.03 240 141.19 245 Q141.35 250 141.46 255 Q141.57 260 141.58 265 Q141.6 270 141.51 275 Q141.42 280 141.22 285 Q141.02 290 140.75 295 Q140.47 300 140.17 305 Q139.86 310 139.57 315 Q139.27 320 139.03 325 Q138.78 330 138.61 335 Q138.44 340 138.34 345 Q138.24 350 138.2 355 Q138.15 360 138.13 365 Q138.1 370 138.07 375 Q138.05 380 138 385 Q137.95 390 137.87 395 Q137.79 400 137.7 405 Q137.62 410 137.57 415 Q137.51 420 137.52 425 Q137.53 430 137.64 435 Q137.76 440 138.01 445 Q138.25 450 138.63 455 Q139 460 139.48 465 Q139.96 470 140.5 475 L141.03 480" stroke="#4A3223" stroke-width="0.91" fill="none" stroke-linecap="round" opacity="0.62"/><path d="M148.39 0 Q148.39 0 149 5 Q149.61 10 150.14 15 Q150.67 20 151.07 25 Q151.46 30 151.69 35 Q151.91 40 151.98 45 Q152.04 50 151.97 55 Q151.9 60 151.76 65 Q151.61 70 151.45 75 Q151.29 80 151.16 85 Q151.03 90 150.95 95 Q150.88 100 150.85 105 Q150.82 110 150.82 115 Q150.81 120 150.79 125 Q150.76 130 150.67 135 Q150.58 140 150.41 145 Q150.23 150 149.95 155 Q149.68 160 149.35 165 Q149.01 170 148.66 175 Q148.31 180 148 185 Q147.69 190 147.49 195 Q147.29 200 147.24 205 Q147.18 210 147.28 215 Q147.37 220 147.59 225 Q147.81 230 148.1 235 Q148.39 240 148.68 245 Q148.97 250 149.19 255 Q149.41 260 149.51 265 Q149.6 270 149.55 275 Q149.49 280 149.29 285 Q149.09 290 148.78 295 Q148.47 300 148.12 305 Q147.77 310 147.44 315 Q147.1 320 146.82 325 Q146.55 330 146.38 335 Q146.2 340 146.11 345 Q146.02 350 146 355 Q145.97 360 145.97 365 Q145.96 370 145.93 375 Q145.9 380 145.82 385 Q145.75 390 145.62 395 Q145.49 400 145.33 405 Q145.17 410 145.02 415 Q144.88 420 144.81 425 Q144.74 430 144.81 435 Q144.87 440 145.1 445 Q145.32 450 145.72 455 Q146.11 460 146.64 465 Q147.17 470 147.78 475 L148.39 480" stroke="#4A3223" stroke-width="0.95" fill="none" stroke-linecap="round" opacity="0.62"/><path d="M155.18 0 Q155.18 0 155.76 5 Q156.33 10 156.84 15 Q157.34 20 157.73 25 Q158.11 30 158.34 35 Q158.57 40 158.66 45 Q158.74 50 158.71 55 Q158.68 60 158.58 65 Q158.48 70 158.37 75 Q158.25 80 158.16 85 Q158.07 90 158.02 95 Q157.97 100 157.97 105 Q157.96 110 157.97 115 Q157.98 120 157.96 125 Q157.95 130 157.87 135 Q157.79 140 157.63 145 Q157.46 150 157.2 155 Q156.95 160 156.63 165 Q156.31 170 155.97 175 Q155.63 180 155.32 185 Q155.02 190 154.81 195 Q154.59 200 154.5 205 Q154.4 210 154.44 215 Q154.47 220 154.62 225 Q154.76 230 154.97 235 Q155.18 240 155.39 245 Q155.6 250 155.75 255 Q155.89 260 155.93 265 Q155.96 270 155.87 275 Q155.77 280 155.56 285 Q155.34 290 155.04 295 Q154.73 300 154.39 305 Q154.05 310 153.73 315 Q153.41 320 153.16 325 Q152.9 330 152.74 335 Q152.57 340 152.49 345 Q152.41 350 152.39 355 Q152.38 360 152.39 365 Q152.4 370 152.39 375 Q152.39 380 152.34 385 Q152.29 390 152.2 395 Q152.11 400 152 405 Q151.88 410 151.78 415 Q151.68 420 151.65 425 Q151.62 430 151.7 435 Q151.79 440 152.02 445 Q152.25 450 152.64 455 Q153.02 460 153.53 465 Q154.03 470 154.61 475 L155.18 480" stroke="#4A3223" stroke-width="0.45" fill="none" stroke-linecap="round" opacity="0.72"/><path d="M165.09 0 Q165.09 0 165.62 5 Q166.15 10 166.62 15 Q167.09 20 167.44 25 Q167.78 30 167.99 35 Q168.19 40 168.26 45 Q168.32 50 168.27 55 Q168.22 60 168.1 65 Q167.98 70 167.85 75 Q167.72 80 167.62 85 Q167.51 90 167.45 95 Q167.39 100 167.37 105 Q167.35 110 167.35 115 Q167.35 120 167.33 125 Q167.3 130 167.23 135 Q167.15 140 167 145 Q166.84 150 166.61 155 Q166.37 160 166.07 165 Q165.77 170 165.46 175 Q165.15 180 164.88 185 Q164.61 190 164.43 195 Q164.24 200 164.18 205 Q164.12 210 164.19 215 Q164.26 220 164.44 225 Q164.61 230 164.85 235 Q165.09 240 165.33 245 Q165.57 250 165.75 255 Q165.92 260 165.99 265 Q166.06 270 166 275 Q165.94 280 165.76 285 Q165.57 290 164.62 295 Q163.67 300 162.23 305 Q160.78 310 159.56 315 Q158.34 320 157.51 325 Q156.67 330 156.31 335 Q155.94 340 156.07 345 Q156.2 350 156.78 355 Q157.36 360 158.28 365 Q159.2 370 160.32 375 Q161.44 380 162.06 385 Q162.67 390 162.57 395 Q162.46 400 162.33 405 Q162.2 410 162.08 415 Q161.96 420 161.91 425 Q161.86 430 161.93 435 Q161.99 440 162.2 445 Q162.4 450 162.75 455 Q163.09 460 163.56 465 Q164.03 470 164.56 475 L165.09 480" stroke="#4A3223" stroke-width="0.95" fill="none" stroke-linecap="round" opacity="0.81"/><path d="M171.88 0 Q171.88 0 172.52 5 Q173.15 10 173.71 15 Q174.27 20 174.68 25 Q175.09 30 175.33 35 Q175.57 40 175.64 45 Q175.71 50 175.65 55 Q175.59 60 175.47 65 Q175.34 70 175.2 75 Q175.06 80 174.97 85 Q174.88 90 174.85 95 Q174.82 100 174.86 105 Q174.89 110 174.95 115 Q175 120 175.03 125 Q175.06 130 175.01 135 Q174.96 140 174.8 145 Q174.64 150 174.37 155 Q174.1 160 173.74 165 Q173.37 170 172.97 175 Q172.57 180 172.21 185 Q171.84 190 171.58 195 Q171.31 200 171.18 205 Q171.05 210 171.08 215 Q171.11 220 171.27 225 Q171.42 230 171.65 235 Q171.88 240 172.11 245 Q172.34 250 172.5 255 Q172.65 260 172.68 265 Q172.71 270 172.58 275 Q172.45 280 172.19 285 Q171.92 290 170.22 295 Q168.52 300 165.91 305 Q163.29 310 161.12 315 Q158.95 320 157.5 325 Q156.05 330 155.49 335 Q154.92 340 155.28 345 Q155.64 350 156.85 355 Q158.05 360 159.91 365 Q161.77 370 164.03 375 Q166.28 380 167.58 385 Q168.88 390 168.79 395 Q168.7 400 168.56 405 Q168.42 410 168.3 415 Q168.17 420 168.11 425 Q168.05 430 168.12 435 Q168.19 440 168.43 445 Q168.67 450 169.08 455 Q169.49 460 170.05 465 Q170.61 470 171.25 475 L171.88 480" stroke="#4A3223" stroke-width="0.86" fill="none" stroke-linecap="round" opacity="0.67"/><path d="M179.89 0 Q179.89 0 180.54 5 Q181.19 10 181.78 15 Q182.37 20 182.84 25 Q183.3 30 183.62 35 Q183.94 40 184.11 45 Q184.27 50 184.31 55 Q184.34 60 184.29 65 Q184.23 70 184.13 75 Q184.02 80 183.9 85 Q183.78 90 183.68 95 Q183.57 100 183.47 105 Q183.37 110 183.28 115 Q183.18 120 183.05 125 Q182.92 130 182.74 135 Q182.56 140 182.32 145 Q182.07 150 181.76 155 Q181.45 160 181.11 165 Q180.77 170 180.43 175 Q180.09 180 179.8 185 Q179.51 190 179.32 195 Q179.13 200 179.06 205 Q178.99 210 179.06 215 Q179.12 220 179.28 225 Q179.44 230 179.67 235 Q179.89 240 180.12 245 Q180.34 250 180.5 255 Q180.66 260 180.73 265 Q180.79 270 180.72 275 Q180.65 280 180.46 285 Q180.27 290 181.34 295 Q182.4 300 184.32 305 Q186.24 310 187.73 315 Q189.22 320 190.11 325 Q190.99 330 191.16 335 Q191.33 340 190.74 345 Q190.14 350 188.82 355 Q187.49 360 185.56 365 Q183.63 370 181.27 375 Q178.92 380 177.46 385 Q176 390 175.88 395 Q175.76 400 175.66 405 Q175.55 410 175.5 415 Q175.44 420 175.48 425 Q175.51 430 175.68 435 Q175.84 440 176.16 445 Q176.48 450 176.95 455 Q177.41 460 178 465 Q178.59 470 179.24 475 L179.89 480" stroke="#4A3223" stroke-width="0.85" fill="none" stroke-linecap="round" opacity="0.8"/><path d="M188.47 0 Q188.47 0 189.01 5 Q189.55 10 190.05 15 Q190.54 20 190.94 25 Q191.33 30 191.61 35 Q191.88 40 192.04 45 Q192.19 50 192.23 55 Q192.27 60 192.24 65 Q192.2 70 192.12 75 Q192.03 80 191.93 85 Q191.82 90 191.72 95 Q191.61 100 191.51 105 Q191.4 110 191.29 115 Q191.18 120 191.05 125 Q190.91 130 190.74 135 Q190.56 140 190.34 145 Q190.12 150 189.86 155 Q189.6 160 189.32 165 Q189.04 170 188.77 175 Q188.5 180 188.28 185 Q188.05 190 187.91 195 Q187.77 200 187.73 205 Q187.69 210 187.75 215 Q187.81 220 187.95 225 Q188.09 230 188.28 235 Q188.47 240 188.66 245 Q188.85 250 188.99 255 Q189.13 260 189.19 265 Q189.25 270 189.21 275 Q189.17 280 189.03 285 Q188.89 290 189.2 295 Q189.5 300 190.12 305 Q190.73 310 191.17 315 Q191.61 320 191.82 325 Q192.02 330 191.96 335 Q191.9 340 191.57 345 Q191.23 350 190.63 355 Q190.03 360 189.2 365 Q188.37 370 187.38 375 Q186.39 380 185.76 385 Q185.12 390 185.02 395 Q184.91 400 184.83 405 Q184.74 410 184.71 415 Q184.67 420 184.71 425 Q184.75 430 184.91 435 Q185.06 440 185.34 445 Q185.61 450 186.01 455 Q186.4 460 186.9 465 Q187.39 470 187.93 475 L188.47 480" stroke="#4A3223" stroke-width="1.05" fill="none" stroke-linecap="round" opacity="0.93"/><path d="M196.91 0 Q196.91 0 197.49 5 Q198.07 10 198.56 15 Q199.05 20 199.4 25 Q199.75 30 199.92 35 Q200.08 40 200.08 45 Q200.07 50 199.95 55 Q199.82 60 199.63 65 Q199.44 70 199.27 75 Q199.09 80 198.98 85 Q198.87 90 198.86 95 Q198.84 100 198.9 105 Q198.96 110 199.06 115 Q199.16 120 199.24 125 Q199.32 130 199.33 135 Q199.33 140 199.22 145 Q199.1 150 198.86 155 Q198.62 160 198.29 165 Q197.95 170 197.57 175 Q197.18 180 196.84 185 Q196.49 190 196.24 195 Q195.99 200 195.9 205 Q195.8 210 195.87 215 Q195.93 220 196.14 225 Q196.34 230 196.63 235 Q196.91 240 197.2 245 Q197.48 250 197.69 255 Q197.89 260 197.96 265 Q198.02 270 197.93 275 Q197.83 280 197.58 285 Q197.33 290 196.99 295 Q196.64 300 196.26 305 Q195.87 310 195.54 315 Q195.2 320 194.96 325 Q194.72 330 194.61 335 Q194.49 340 194.5 345 Q194.5 350 194.58 355 Q194.66 360 194.76 365 Q194.86 370 194.92 375 Q194.98 380 194.96 385 Q194.95 390 194.84 395 Q194.73 400 194.56 405 Q194.38 410 194.19 415 Q194 420 193.88 425 Q193.75 430 193.75 435 Q193.74 440 193.91 445 Q194.07 450 194.42 455 Q194.77 460 195.26 465 Q195.75 470 196.33 475 L196.91 480" stroke="#4A3223" stroke-width="0.84" fill="none" stroke-linecap="round" opacity="0.72"/><path d="M203.54 0 Q203.54 0 204.29 5 Q205.03 10 205.7 15 Q206.36 20 206.88 25 Q207.4 30 207.75 35 Q208.09 40 208.26 45 Q208.43 50 208.46 55 Q208.49 60 208.43 65 Q208.36 70 208.27 75 Q208.17 80 208.09 85 Q208.01 90 207.96 95 Q207.92 100 207.91 105 Q207.9 110 207.9 115 Q207.89 120 207.85 125 Q207.81 130 207.69 135 Q207.57 140 207.34 145 Q207.11 150 206.78 155 Q206.45 160 206.04 165 Q205.63 170 205.19 175 Q204.75 180 204.35 185 Q203.95 190 203.65 195 Q203.34 200 203.18 205 Q203.01 210 203 215 Q202.98 220 203.08 225 Q203.19 230 203.37 235 Q203.54 240 203.71 245 Q203.89 250 204 255 Q204.1 260 204.08 265 Q204.07 270 203.91 275 Q203.74 280 203.44 285 Q203.13 290 202.73 295 Q202.33 300 201.89 305 Q201.45 310 201.04 315 Q200.63 320 200.3 325 Q199.97 330 199.74 335 Q199.51 340 199.39 345 Q199.27 350 199.23 355 Q199.19 360 199.19 365 Q199.18 370 199.17 375 Q199.16 380 199.12 385 Q199.07 390 198.99 395 Q198.91 400 198.82 405 Q198.72 410 198.66 415 Q198.59 420 198.62 425 Q198.65 430 198.82 435 Q198.99 440 199.34 445 Q199.68 450 200.2 455 Q200.72 460 201.39 465 Q202.05 470 202.8 475 L203.54 480" stroke="#4A3223" stroke-width="0.67" fill="none" stroke-linecap="round" opacity="0.97"/><path d="M212.75 0 Q212.75 0 213.48 5 Q214.21 10 214.86 15 Q215.5 20 215.99 25 Q216.48 30 216.78 35 Q217.08 40 217.19 45 Q217.3 50 217.27 55 Q217.23 60 217.11 65 Q216.98 70 216.83 75 Q216.68 80 216.56 85 Q216.44 90 216.38 95 Q216.31 100 216.3 105 Q216.29 110 216.3 115 Q216.3 120 216.28 125 Q216.25 130 216.15 135 Q216.04 140 215.83 145 Q215.62 150 215.3 155 Q214.97 160 214.56 165 Q214.15 170 213.72 175 Q213.29 180 212.91 185 Q212.52 190 212.25 195 Q211.97 200 211.85 205 Q211.73 210 211.78 215 Q211.83 220 212.02 225 Q212.21 230 212.48 235 Q212.75 240 213.02 245 Q213.29 250 213.48 255 Q213.67 260 213.72 265 Q213.77 270 213.65 275 Q213.53 280 213.26 285 Q212.98 290 212.6 295 Q212.21 300 211.78 305 Q211.35 310 210.94 315 Q210.53 320 210.21 325 Q209.88 330 209.67 335 Q209.46 340 209.36 345 Q209.25 350 209.23 355 Q209.2 360 209.21 365 Q209.21 370 209.2 375 Q209.19 380 209.13 385 Q209.06 390 208.94 395 Q208.82 400 208.67 405 Q208.52 410 208.4 415 Q208.27 420 208.24 425 Q208.2 430 208.31 435 Q208.42 440 208.72 445 Q209.02 450 209.51 455 Q210 460 210.65 465 Q211.29 470 212.02 475 L212.75 480" stroke="#4A3223" stroke-width="0.59" fill="none" stroke-linecap="round" opacity="0.65"/><path d="M219.59 0 Q219.59 0 220.08 5 Q220.57 10 221.01 15 Q221.44 20 221.79 25 Q222.13 30 222.36 35 Q222.59 40 222.7 45 Q222.81 50 222.83 55 Q222.84 60 222.8 65 Q222.75 70 222.68 75 Q222.6 80 222.52 85 Q222.45 90 222.4 95 Q222.35 100 222.32 105 Q222.28 110 222.25 115 Q222.21 120 222.16 125 Q222.1 130 222 135 Q221.9 140 221.74 145 Q221.57 150 221.35 155 Q221.13 160 220.86 165 Q220.59 170 220.32 175 Q220.05 180 219.81 185 Q219.56 190 219.39 195 Q219.21 200 219.13 205 Q219.05 210 219.07 215 Q219.09 220 219.2 225 Q219.3 230 219.45 235 Q219.59 240 219.74 245 Q219.88 250 219.99 255 Q220.09 260 220.11 265 Q220.13 270 220.05 275 Q219.97 280 219.8 285 Q219.62 290 219.38 295 Q219.13 300 218.86 305 Q218.59 310 218.32 315 Q218.05 320 217.83 325 Q217.61 330 217.45 335 Q217.28 340 217.18 345 Q217.08 350 217.03 355 Q216.97 360 216.94 365 Q216.9 370 216.87 375 Q216.83 380 216.78 385 Q216.73 390 216.66 395 Q216.58 400 216.51 405 Q216.43 410 216.39 415 Q216.34 420 216.36 425 Q216.37 430 216.48 435 Q216.59 440 216.82 445 Q217.05 450 217.4 455 Q217.74 460 218.18 465 Q218.61 470 219.1 475 L219.59 480" stroke="#4A3223" stroke-width="0.58" fill="none" stroke-linecap="round" opacity="0.61"/><path d="M226.88 0 Q226.88 0 227.45 5 Q228.01 10 228.51 15 Q229 20 229.38 25 Q229.76 30 230 35 Q230.24 40 230.34 45 Q230.44 50 230.43 55 Q230.42 60 230.35 65 Q230.28 70 230.19 75 Q230.1 80 230.04 85 Q229.98 90 229.96 95 Q229.94 100 229.96 105 Q229.98 110 230.02 115 Q230.05 120 230.06 125 Q230.06 130 230 135 Q229.94 140 229.79 145 Q229.63 150 229.39 155 Q229.14 160 228.83 165 Q228.51 170 228.16 175 Q227.81 180 227.49 185 Q227.17 190 226.93 195 Q226.68 200 226.55 205 Q226.42 210 226.41 215 Q226.4 220 226.49 225 Q226.58 230 226.73 235 Q226.88 240 227.03 245 Q227.18 250 227.27 255 Q227.36 260 227.35 265 Q227.34 270 227.21 275 Q227.08 280 226.84 285 Q226.59 290 226.27 295 Q225.95 300 225.6 305 Q225.25 310 224.94 315 Q224.62 320 224.38 325 Q224.13 330 223.98 335 Q223.82 340 223.76 345 Q223.7 350 223.71 355 Q223.71 360 223.75 365 Q223.78 370 223.8 375 Q223.82 380 223.8 385 Q223.78 390 223.72 395 Q223.66 400 223.57 405 Q223.48 410 223.41 415 Q223.34 420 223.33 425 Q223.32 430 223.42 435 Q223.52 440 223.76 445 Q224 450 224.38 455 Q224.76 460 225.26 465 Q225.75 470 226.32 475 L226.88 480" stroke="#4A3223" stroke-width="0.98" fill="none" stroke-linecap="round" opacity="0.75"/><path d="M235.57 0 Q235.57 0 236.14 5 Q236.7 10 237.19 15 Q237.68 20 238.04 25 Q238.39 30 238.58 35 Q238.78 40 238.82 45 Q238.86 50 238.78 55 Q238.69 60 238.54 65 Q238.38 70 238.22 75 Q238.05 80 237.92 85 Q237.78 90 237.71 95 Q237.63 100 237.61 105 Q237.58 110 237.59 115 Q237.59 120 237.58 125 Q237.56 130 237.49 135 Q237.41 140 237.25 145 Q237.08 150 236.83 155 Q236.58 160 236.27 165 Q235.96 170 235.63 175 Q235.3 180 235.02 185 Q234.73 190 234.55 195 Q234.37 200 234.33 205 Q234.29 210 234.4 215 Q234.51 220 234.74 225 Q234.97 230 235.27 235 Q235.57 240 235.87 245 Q236.17 250 236.4 255 Q236.63 260 236.74 265 Q236.85 270 236.81 275 Q236.77 280 236.59 285 Q236.41 290 236.13 295 Q235.84 300 235.51 305 Q235.18 310 234.87 315 Q234.56 320 234.31 325 Q234.06 330 233.9 335 Q233.73 340 233.66 345 Q233.58 350 233.57 355 Q233.55 360 233.56 365 Q233.56 370 233.54 375 Q233.51 380 233.44 385 Q233.36 390 233.23 395 Q233.09 400 232.93 405 Q232.76 410 232.61 415 Q232.45 420 232.37 425 Q232.28 430 232.32 435 Q232.36 440 232.56 445 Q232.75 450 233.11 455 Q233.46 460 233.95 465 Q234.44 470 235.01 475 L235.57 480" stroke="#4A3223" stroke-width="0.91" fill="none" stroke-linecap="round" opacity="0.97"/><ellipse cx="69.72" cy="150" rx="10" ry="20" stroke="#4A3223" stroke-width="0.67" fill="none" opacity="0.6"/><ellipse cx="69.81" cy="150" rx="6.52" ry="13.04" stroke="#4A3223" stroke-width="0.91" fill="none" opacity="0.91"/><ellipse cx="70" cy="150" rx="1.2" ry="2.8" fill="#4A3223" opacity="0.75"/><ellipse cx="176.01" cy="340" rx="12" ry="24" stroke="#4A3223" stroke-width="0.87" fill="none" opacity="0.85"/><ellipse cx="175.64" cy="340" rx="7.36" ry="14.72" stroke="#4A3223" stroke-width="0.58" fill="none" opacity="0.72"/><ellipse cx="175.5" cy="340" rx="2.53" ry="5.05" stroke="#4A3223" stroke-width="0.91" fill="none" opacity="0.92"/><ellipse cx="176" cy="340" rx="1.44" ry="3.36" fill="#4A3223" opacity="0.75"/></svg>