<svg xmlns="http://www.w3.org/2000/svg" width="120" height="160" viewBox="0 0 120 160"><path d="M6 0 Q6 0 6.26 1.67 Q6.52 3.33 6.77 5 Q7.01 6.67 7.25 8.34 Q7.48 10 7.69 11.67 Q7.89 13.33 8.06 15 Q8.23 16.67 8.37 18.34 Q8.51 20 8.61 21.67 Q8.7 23.33 8.76 25 Q8.82 26.67 8.84 28.34 Q8.85 30 8.83 31.67 Q8.81 33.33 8.76 35 Q8.71 36.67 8.63 38.34 Q8.54 40 8.44 41.67 Q8.34 43.33 8.22 45 Q8.1 46.67 7.98 48.34 Q7.85 50 7.72 51.67 Q7.59 53.33 7.46 55 Q7.33 56.67 7.21 58.34 Q7.09 60 6.98 61.67 Q6.86 63.33 6.76 65 Q6.66 66.67 6.57 68.34 Q6.47 70 6.39 71.66 Q6.3 73.33 6.23 75 Q6.15 76.67 6.08 78.34 Q6 80 5.93 81.66 Q5.85 83.33 5.78 85 Q5.7 86.67 5.62 88.34 Q5.53 90 5.44 91.67 Q5.34 93.33 5.24 95 Q5.14 96.67 5.03 98.34 Q4.91 100 4.79 101.67 Q4.67 103.33 4.54 105 Q4.41 106.67 4.28 108.34 Q4.15 110 4.03 111.67 Q3.9 113.33 3.78 115 Q3.66 116.67 3.56 118.34 Q3.46 120 3.38 121.67 Q3.29 123.33 3.24 125 Q3.19 126.67 3.17 128.34 Q3.15 130 3.17 131.67 Q3.18 133.33 3.24 135 Q3.3 136.67 3.4 138.33 Q3.49 140 3.63 141.67 Q3.77 143.33 3.94 145 Q4.11 146.67 4.31 148.33 Q4.52 150 4.76 151.67 Q4.99 153.33 5.24 155 Q5.48 156.67 5.74 158.33 L6 160" stroke="#4A3223" stroke-width="0.84" fill="none" stroke-linecap="round" opacity="0.9"/><path d="M15 0 Q15 0 15.27 1.67 Q15.54 3.33 15.8 5 Q16.06 6.67 16.3 8.34 Q16.53 10 16.74 11.67 Q16.94 13.33 17.11 15 Q17.27 16.67 17.39 18.34 Q17.51 20 17.59 21.67 Q17.66 23.33 17.69 25 Q17.71 26.67 17.69 28.34 Q17.66 30 17.6 31.67 Q17.54 33.33 17.44 35 Q17.34 36.67 17.22 38.34 Q17.09 40 16.95 41.67 Q16.81 43.33 16.66 45 Q16.51 46.67 16.36 48.34 Q16.2 50 16.06 51.67 Q15.92 53.33 15.79 55 Q15.66 56.67 15.56 58.34 Q15.45 60 15.36 61.67 Q15.28 63.33 15.22 65 Q15.15 66.67 15.11 68.34 Q15.07 70 15.05 71.66 Q15.03 73.33 15.02 75 Q15.01 76.67 15.01 78.34 Q15 80 15 81.66 Q14.99 83.33 14.98 85 Q14.97 86.67 14.95 88.34 Q14.93 90 14.89 91.67 Q14.85 93.33 14.79 95 Q14.72 96.67 14.64 98.34 Q14.55 100 14.45 101.67 Q14.34 103.33 14.21 105 Q14.08 106.67 13.94 108.34 Q13.8 110 13.65 111.67 Q13.49 113.33 13.34 115 Q13.19 116.67 13.05 118.34 Q12.91 120 12.79 121.67 Q12.66 123.33 12.56 125 Q12.46 126.67 12.4 128.34 Q12.34 130 12.32 131.67 Q12.29 133.33 12.32 135 Q12.34 136.67 12.42 138.33 Q12.49 140 12.61 141.67 Q12.73 143.33 12.9 145 Q13.06 146.67 13.27 148.33 Q13.47 150 13.71 151.67 Q13.94 153.33 14.2 155 Q14.46 156.67 14.73 158.33 L15 160" stroke="#4A3223" stroke-width="0.76" fill="none" stroke-linecap="round" opacity="0.66"/><path d="M23.6 0 Q23.6 0 23.78 1.67 Q23.96 3.33 24.13 5 Q24.3 6.67 24.45 8.34 Q24.59 10 24.71 11.67 Q24.82 13.33 24.9 15 Q24.97 16.67 24.99 18.34 Q25.02 20 25 21.67 Q24.98 23.33 24.91 25 Q24.84 26.67 24.73 28.34 Q24.61 30 24.46 31.67 Q24.3 33.33 24.12 35 Q23.94 36.67 23.73 38.34 Q23.52 40 23.31 41.67 Q23.09 43.33 22.87 45 Q22.65 46.67 22.45 48.34 Q22.24 50 22.05 51.67 Q21.86 53.33 21.7 55 Q21.53 56.67 21.4 58.34 Q21.27 60 21.17 61.67 Q21.08 63.33 21.02 65 Q20.96 66.67 20.93 68.34 Q20.9 70 20.9 71.66 Q20.89 73.33 20.91 75 Q20.93 76.67 20.97 78.34 Q21 80 21.04 81.66 Q21.08 83.33 21.12 85 Q21.15 86.67 21.17 88.34 Q21.2 90 21.21 91.67 Q21.22 93.33 21.21 95 Q21.19 96.67 21.15 98.34 Q21.11 100 21.05 101.67 Q20.99 103.33 20.91 105 Q20.82 106.67 20.72 108.34 Q20.62 110 20.51 111.67 Q20.39 113.33 20.28 115 Q20.17 116.67 20.07 118.34 Q19.96 120 19.88 121.67 Q19.8 123.33 19.75 125 Q19.69 126.67 19.67 128.34 Q19.65 130 19.68 131.67 Q19.71 133.33 19.79 135 Q19.87 136.67 20.01 138.33 Q20.14 140 20.33 141.67 Q20.52 143.33 20.76 145 Q21 146.67 21.28 148.33 Q21.56 150 21.88 151.67 Q22.2 153.33 22.55 155 Q22.89 156.67 23.25 158.33 L23.6 160" stroke="#4A3223" stroke-width="0.99" fill="none" stroke-linecap="round" opacity="0.6"/><path d="M31.41 0 Q31.41 0 31.38 1.67 Q31.34 3.33 31.3 5 Q31.26 6.67 31.2 8.34 Q31.13 10 31.03 11.67 Q30.93 13.33 30.8 15 Q30.66 16.67 30.48 18.34 Q30.29 20 30.06 21.67 Q29.83 23.33 29.55 25 Q29.27 26.67 28.95 28.34 Q28.63 30 28.28 31.67 Q27.92 33.33 27.54 35 Q27.15 36.67 26.75 38.34 Q26.35 40 25.95 41.67 Q25.54 43.33 25.14 45 Q24.74 46.67 24.37 48.34 Q23.99 50 23.65 51.67 Q23.3 53.33 22.99 55 Q22.68 56.67 22.42 58.34 Q22.16 60 21.95 61.67 Q21.74 63.33 21.58 65 Q21.42 66.67 21.31 68.34 Q21.19 70 21.13 71.66 Q21.06 73.33 21.03 75 Q21 76.67 21 78.34 Q21 80 21.02 81.66 Q21.04 83.33 21.08 85 Q21.11 86.67 21.15 88.34 Q21.19 90 21.23 91.67 Q21.27 93.33 21.3 95 Q21.33 96.67 21.35 98.34 Q21.37 100 21.39 101.67 Q21.4 103.33 21.41 105 Q21.41 106.67 21.42 108.34 Q21.42 110 21.43 111.67 Q21.44 113.33 21.47 115 Q21.49 116.67 21.54 118.34 Q21.59 120 21.68 121.67 Q21.77 123.33 21.91 125 Q22.04 126.67 22.24 128.34 Q22.43 130 22.68 131.67 Q22.93 133.33 23.26 135 Q23.58 136.67 23.97 138.33 Q24.36 140 24.82 141.67 Q25.28 143.33 25.81 145 Q26.33 146.67 26.91 148.33 Q27.49 150 28.12 151.67 Q28.74 153.33 29.4 155 Q30.06 156.67 30.74 158.33 L31.41 160" stroke="#4A3223" stroke-width="0.79" fill="none" stroke-linecap="round" opacity="0.7"/><path d="M39.22 0 Q39.22 0 38.85 1.67 Q38.47 3.33 38.1 5 Q37.72 6.67 37.34 8.34 Q36.95 10 36.55 11.67 Q36.15 13.33 35.72 15 Q35.3 16.67 34.85 18.34 Q34.4 20 33.92 21.67 Q33.44 23.33 32.94 25 Q32.44 26.67 31.92 28.34 Q31.4 30 30.87 31.67 Q30.33 33.33 29.78 35 Q29.24 36.67 28.7 38.34 Q28.16 40 27.63 41.67 Q27.1 43.33 26.59 45 Q26.08 46.67 25.6 48.34 Q25.13 50 24.69 51.67 Q24.25 53.33 23.86 55 Q23.47 56.67 23.13 58.34 Q22.79 60 22.51 61.67 Q22.23 63.33 22 65 Q21.77 66.67 21.6 68.34 Q21.43 70 21.31 71.66 Q21.19 73.33 21.12 75 Q21.05 76.67 21.03 78.34 Q21 80 21.01 81.66 Q21.02 83.33 21.07 85 Q21.11 86.67 21.18 88.34 Q21.25 90 21.34 91.67 Q21.43 93.33 21.54 95 Q21.65 96.67 21.77 98.34 Q21.89 100 22.03 101.67 Q22.17 103.33 22.33 105 Q22.48 106.67 22.66 108.34 Q22.83 110 23.03 111.67 Q23.23 113.33 23.47 115 Q23.7 116.67 23.97 118.34 Q24.24 120 24.56 121.67 Q24.87 123.33 25.24 125 Q25.6 126.67 26.03 128.34 Q26.45 130 26.94 131.67 Q27.42 133.33 27.97 135 Q28.52 136.67 29.14 138.33 Q29.75 140 30.43 141.67 Q31.1 143.33 31.83 145 Q32.56 146.67 33.35 148.33 Q34.13 150 34.95 151.67 Q35.77 153.33 36.63 155 Q37.48 156.67 38.35 158.33 L39.22 160" stroke="#4A3223" stroke-width="0.6" fill="none" stroke-linecap="round" opacity="0.73"/><path d="M47.02 0 Q47.02 0 46.38 1.67 Q45.74 3.33 45.1 5 Q44.46 6.67 43.82 8.34 Q43.18 10 42.53 11.67 Q41.87 13.33 41.21 15 Q40.55 16.67 39.87 18.34 Q39.19 20 38.5 21.67 Q37.81 23.33 37.11 25 Q36.4 26.67 35.69 28.34 Q34.97 30 34.26 31.67 Q33.55 33.33 32.84 35 Q32.13 36.67 31.43 38.34 Q30.73 40 30.05 41.67 Q29.37 43.33 28.73 45 Q28.08 46.67 27.47 48.34 Q26.86 50 26.3 51.67 Q25.73 53.33 25.22 55 Q24.71 56.67 24.26 58.34 Q23.8 60 23.41 61.67 Q23.02 63.33 22.7 65 Q22.37 66.67 22.11 68.34 Q21.84 70 21.64 71.66 Q21.44 73.33 21.3 75 Q21.16 76.67 21.08 78.34 Q21 80 20.98 81.66 Q20.95 83.33 20.97 85 Q20.99 86.67 21.06 88.34 Q21.13 90 21.24 91.67 Q21.35 93.33 21.5 95 Q21.65 96.67 21.84 98.34 Q22.03 100 22.26 101.67 Q22.49 103.33 22.76 105 Q23.03 106.67 23.34 108.34 Q23.65 110 24.01 111.67 Q24.37 113.33 24.78 115 Q25.19 116.67 25.66 118.34 Q26.12 120 26.65 121.67 Q27.17 123.33 27.76 125 Q28.35 126.67 29.01 128.34 Q29.67 130 30.4 131.67 Q31.12 133.33 31.92 135 Q32.71 136.67 33.58 138.33 Q34.44 140 35.37 141.67 Q36.3 143.33 37.29 145 Q38.28 146.67 39.32 148.33 Q40.36 150 41.45 151.67 Q42.53 153.33 43.65 155 Q44.76 156.67 45.89 158.33 L47.02 160" stroke="#4A3223" stroke-width="0.95" fill="none" stroke-linecap="round" opacity="0.62"/><path d="M65.17 0 Q65.17 0 66.65 1.67 Q68.12 3.33 69.57 5 Q71.02 6.67 72.43 8.34 Q73.83 10 75.17 11.67 Q76.51 13.33 77.78 15 Q79.05 16.67 80.24 18.34 Q81.42 20 82.51 21.67 Q83.6 23.33 84.6 25 Q85.59 26.67 86.49 28.34 Q87.39 30 88.2 31.67 Q89 33.33 89.72 35 Q90.44 36.67 91.07 38.34 Q91.71 40 92.28 41.67 Q92.84 43.33 93.34 45 Q93.83 46.67 94.28 48.34 Q94.72 50 95.12 51.67 Q95.52 53.33 95.88 55 Q96.23 56.67 96.55 58.34 Q96.87 60 97.16 61.67 Q97.44 63.33 97.69 65 Q97.93 66.67 98.14 68.34 Q98.35 70 98.52 71.66 Q98.68 73.33 98.79 75 Q98.9 76.67 98.95 78.34 Q99 80 98.98 81.66 Q98.96 83.33 98.86 85 Q98.76 86.67 98.58 88.34 Q98.39 90 98.12 91.67 Q97.84 93.33 97.47 95 Q97.09 96.67 96.62 98.34 Q96.15 100 95.58 101.67 Q95.01 103.33 94.35 105 Q93.69 106.67 92.95 108.34 Q92.21 110 91.4 111.67 Q90.58 113.33 89.71 115 Q88.83 116.67 87.91 118.34 Q86.99 120 86.04 121.67 Q85.08 123.33 84.1 125 Q83.13 126.67 82.16 128.34 Q81.18 130 80.21 131.67 Q79.24 133.33 78.28 135 Q77.32 136.67 76.39 138.33 Q75.46 140 74.56 141.67 Q73.65 143.33 72.77 145 Q71.88 146.67 71.03 148.33 Q70.17 150 69.33 151.67 Q68.49 153.33 67.66 155 Q66.83 156.67 66 158.33 L65.17 160" stroke="#4A3223" stroke-width="0.6" fill="none" stroke-linecap="round" opacity="0.93"/><path d="M72.98 0 Q72.98 0 74.15 1.67 Q75.31 3.33 76.45 5 Q77.59 6.67 78.69 8.34 Q79.8 10 80.85 11.67 Q81.9 13.33 82.89 15 Q83.88 16.67 84.79 18.34 Q85.7 20 86.54 21.67 Q87.38 23.33 88.13 25 Q88.88 26.67 89.56 28.34 Q90.23 30 90.83 31.67 Q91.42 33.33 91.94 35 Q92.46 36.67 92.92 38.34 Q93.38 40 93.79 41.67 Q94.19 43.33 94.55 45 Q94.9 46.67 95.22 48.34 Q95.53 50 95.82 51.67 Q96.11 53.33 96.37 55 Q96.63 56.67 96.87 58.34 Q97.11 60 97.34 61.67 Q97.56 63.33 97.77 65 Q97.97 66.67 98.15 68.34 Q98.33 70 98.48 71.66 Q98.63 73.33 98.75 75 Q98.86 76.67 98.93 78.34 Q99 80 99.02 81.66 Q99.03 83.33 98.99 85 Q98.94 86.67 98.82 88.34 Q98.7 90 98.51 91.67 Q98.32 93.33 98.04 95 Q97.77 96.67 97.41 98.34 Q97.05 100 96.61 101.67 Q96.17 103.33 95.65 105 Q95.13 106.67 94.54 108.34 Q93.95 110 93.3 111.67 Q92.65 113.33 91.95 115 Q91.25 116.67 90.51 118.34 Q89.77 120 89.01 121.67 Q88.24 123.33 87.46 125 Q86.68 126.67 85.91 128.34 Q85.13 130 84.37 131.67 Q83.6 133.33 82.85 135 Q82.11 136.67 81.38 138.33 Q80.66 140 79.97 141.67 Q79.27 143.33 78.6 145 Q77.94 146.67 77.3 148.33 Q76.66 150 76.04 151.67 Q75.41 153.33 74.8 155 Q74.19 156.67 73.59 158.33 L72.98 160" stroke="#4A3223" stroke-width="0.46" fill="none" stroke-linecap="round" opacity="0.86"/><path d="M80.78 0 Q80.78 0 81.68 1.67 Q82.58 3.33 83.46 5 Q84.33 6.67 85.18 8.34 Q86.02 10 86.82 11.67 Q87.63 13.33 88.38 15 Q89.13 16.67 89.82 18.34 Q90.51 20 91.14 21.67 Q91.76 23.33 92.32 25 Q92.88 26.67 93.37 28.34 Q93.86 30 94.29 31.67 Q94.71 33.33 95.07 35 Q95.44 36.67 95.75 38.34 Q96.06 40 96.33 41.67 Q96.59 43.33 96.81 45 Q97.03 46.67 97.22 48.34 Q97.41 50 97.57 51.67 Q97.74 53.33 97.88 55 Q98.02 56.67 98.15 58.34 Q98.27 60 98.38 61.67 Q98.49 63.33 98.59 65 Q98.68 66.67 98.76 68.34 Q98.83 70 98.89 71.66 Q98.94 73.33 98.97 75 Q99 76.67 99 78.34 Q99 80 98.96 81.66 Q98.92 83.33 98.84 85 Q98.76 86.67 98.63 88.34 Q98.49 90 98.31 91.67 Q98.12 93.33 97.88 95 Q97.64 96.67 97.34 98.34 Q97.04 100 96.69 101.67 Q96.34 103.33 95.94 105 Q95.53 106.67 95.08 108.34 Q94.63 110 94.14 111.67 Q93.65 113.33 93.14 115 Q92.62 116.67 92.08 118.34 Q91.54 120 91 121.67 Q90.45 123.33 89.91 125 Q89.36 126.67 88.83 128.34 Q88.29 130 87.78 131.67 Q87.26 133.33 86.77 135 Q86.27 136.67 85.81 138.33 Q85.35 140 84.92 141.67 Q84.48 143.33 84.07 145 Q83.66 146.67 83.28 148.33 Q82.9 150 82.54 151.67 Q82.18 153.33 81.83 155 Q81.48 156.67 81.13 158.33 L80.78 160" stroke="#4A3223" stroke-width="0.98" fill="none" stroke-linecap="round" opacity="0.57"/><path d="M88.59 0 Q88.59 0 89.29 1.67 Q89.98 3.33 90.65 5 Q91.32 6.67 91.96 8.34 Q92.6 10 93.19 11.67 Q93.78 13.33 94.31 15 Q94.83 16.67 95.29 18.34 Q95.75 20 96.14 21.67 Q96.52 23.33 96.83 25 Q97.14 26.67 97.38 28.34 Q97.61 30 97.79 31.67 Q97.96 33.33 98.07 35 Q98.18 36.67 98.25 38.34 Q98.31 40 98.34 41.67 Q98.37 43.33 98.38 45 Q98.38 46.67 98.38 48.34 Q98.37 50 98.37 51.67 Q98.36 53.33 98.36 55 Q98.36 56.67 98.37 58.34 Q98.38 60 98.41 61.67 Q98.44 63.33 98.49 65 Q98.53 66.67 98.59 68.34 Q98.65 70 98.71 71.66 Q98.77 73.33 98.84 75 Q98.9 76.67 98.95 78.34 Q99 80 99.03 81.66 Q99.06 83.33 99.06 85 Q99.05 86.67 99.01 88.34 Q98.97 90 98.88 91.67 Q98.78 93.33 98.64 95 Q98.49 96.67 98.29 98.34 Q98.08 100 97.82 101.67 Q97.56 103.33 97.25 105 Q96.94 106.67 96.58 108.34 Q96.22 110 95.83 111.67 Q95.44 113.33 95.02 115 Q94.6 116.67 94.18 118.34 Q93.75 120 93.33 121.67 Q92.9 123.33 92.49 125 Q92.08 126.67 91.71 128.34 Q91.33 130 90.99 131.67 Q90.65 133.33 90.36 135 Q90.07 136.67 89.84 138.33 Q89.6 140 89.42 141.67 Q89.23 143.33 89.1 145 Q88.96 146.67 88.87 148.33 Q88.78 150 88.73 151.67 Q88.68 153.33 88.65 155 Q88.62 156.67 88.61 158.33 L88.59 160" stroke="#4A3223" stroke-width="0.83" fill="none" stroke-linecap="round" opacity="0.72"/><path d="M96.4 0 Q96.4 0 96.77 1.67 Q97.14 3.33 97.5 5 Q97.86 6.67 98.19 8.34 Q98.52 10 98.82 11.67 Q99.12 13.33 99.37 15 Q99.62 16.67 99.82 18.34 Q100.02 20 100.17 21.67 Q100.31 23.33 100.4 25 Q100.49 26.67 100.53 28.34 Q100.57 30 100.56 31.67 Q100.55 33.33 100.51 35 Q100.46 36.67 100.38 38.34 Q100.3 40 100.2 41.67 Q100.09 43.33 99.98 45 Q99.87 46.67 99.76 48.34 Q99.64 50 99.53 51.67 Q99.42 53.33 99.33 55 Q99.24 56.67 99.17 58.34 Q99.09 60 99.04 61.67 Q98.99 63.33 98.96 65 Q98.93 66.67 98.92 68.34 Q98.91 70 98.92 71.66 Q98.93 73.33 98.95 75 Q98.96 76.67 98.98 78.34 Q99 80 99.02 81.66 Q99.03 83.33 99.03 85 Q99.03 86.67 99.01 88.34 Q98.99 90 98.95 91.67 Q98.9 93.33 98.82 95 Q98.74 96.67 98.64 98.34 Q98.53 100 98.39 101.67 Q98.24 103.33 98.07 105 Q97.9 106.67 97.71 108.34 Q97.51 110 97.3 111.67 Q97.09 113.33 96.87 115 Q96.65 116.67 96.44 118.34 Q96.22 120 96.02 121.67 Q95.81 123.33 95.63 125 Q95.45 126.67 95.31 128.34 Q95.16 130 95.06 131.67 Q94.95 133.33 94.89 135 Q94.83 136.67 94.82 138.33 Q94.82 140 94.85 141.67 Q94.89 143.33 94.98 145 Q95.07 146.67 95.2 148.33 Q95.32 150 95.48 151.67 Q95.64 153.33 95.83 155 Q96.01 156.67 96.21 158.33 L96.4 160" stroke="#4A3223" stroke-width="0.94" fill="none" stroke-linecap="round" opacity="0.95"/><path d="M105 0 Q105 0 105.25 1.67 Q105.49 3.33 105.73 5 Q105.97 6.67 106.19 8.34 Q106.4 10 106.59 11.67 Q106.77 13.33 106.92 15 Q107.07 16.67 107.19 18.34 Q107.3 20 107.37 21.67 Q107.43 23.33 107.46 25 Q107.48 26.67 107.46 28.34 Q107.44 30 107.39 31.67 Q107.33 33.33 107.25 35 Q107.16 36.67 107.05 38.34 Q106.94 40 106.81 41.67 Q106.68 43.33 106.54 45 Q106.4 46.67 106.27 48.34 Q106.13 50 106 51.67 Q105.87 53.33 105.76 55 Q105.64 56.67 105.54 58.34 Q105.44 60 105.36 61.67 Q105.28 63.33 105.22 65 Q105.16 66.67 105.12 68.34 Q105.08 70 105.06 71.66 Q105.04 73.33 105.03 75 Q105.01 76.67 105.01 78.34 Q105 80 105 81.66 Q104.99 83.33 104.98 85 Q104.96 86.67 104.94 88.34 Q104.92 90 104.88 91.67 Q104.84 93.33 104.78 95 Q104.72 96.67 104.64 98.34 Q104.56 100 104.46 101.67 Q104.36 103.33 104.25 105 Q104.13 106.67 104 108.34 Q103.87 110 103.74 111.67 Q103.6 113.33 103.46 115 Q103.32 116.67 103.19 118.34 Q103.06 120 102.95 121.67 Q102.84 123.33 102.76 125 Q102.67 126.67 102.62 128.34 Q102.56 130 102.54 131.67 Q102.52 133.33 102.54 135 Q102.57 136.67 102.64 138.33 Q102.7 140 102.82 141.67 Q102.93 143.33 103.08 145 Q103.23 146.67 103.42 148.33 Q103.6 150 103.82 151.67 Q104.03 153.33 104.27 155 Q104.51 156.67 104.76 158.33 L105 160" stroke="#4A3223" stroke-width="0.98" fill="none" stroke-linecap="round" opacity="0.62"/><path d="M114 0 Q114 0 114.33 1.67 Q114.66 3.33 114.98 5 Q115.3 6.67 115.59 8.34 Q115.87 10 116.12 11.67 Q116.36 13.33 116.55 15 Q116.74 16.67 116.87 18.34 Q116.99 20 117.06 21.67 Q117.12 23.33 117.13 25 Q117.13 26.67 117.07 28.34 Q117.01 30 116.9 31.67 Q116.78 33.33 116.63 35 Q116.47 36.67 116.29 38.34 Q116.1 40 115.9 41.67 Q115.69 43.33 115.48 45 Q115.27 46.67 115.07 48.34 Q114.87 50 114.69 51.67 Q114.51 53.33 114.36 55 Q114.21 56.67 114.1 58.34 Q113.98 60 113.9 61.67 Q113.82 63.33 113.78 65 Q113.74 66.67 113.74 68.34 Q113.74 70 113.77 71.66 Q113.79 73.33 113.84 75 Q113.88 76.67 113.94 78.34 Q114 80 114.06 81.66 Q114.12 83.33 114.17 85 Q114.21 86.67 114.24 88.34 Q114.26 90 114.26 91.67 Q114.26 93.33 114.22 95 Q114.18 96.67 114.1 98.34 Q114.02 100 113.91 101.67 Q113.79 103.33 113.64 105 Q113.49 106.67 113.31 108.34 Q113.13 110 112.93 111.67 Q112.73 113.33 112.52 115 Q112.31 116.67 112.11 118.34 Q111.9 120 111.72 121.67 Q111.53 123.33 111.38 125 Q111.22 126.67 111.1 128.34 Q110.99 130 110.93 131.67 Q110.87 133.33 110.88 135 Q110.88 136.67 110.95 138.33 Q111.01 140 111.14 141.67 Q111.26 143.33 111.45 145 Q111.64 146.67 111.89 148.33 Q112.13 150 112.42 151.67 Q112.7 153.33 113.02 155 Q113.34 156.67 113.67 158.33 L114 160" stroke="#4A3223" stroke-width="0.59" fill="none" stroke-linecap="round" opacity="0.78"/><ellipse cx="58.75" cy="80" rx="26" ry="46" stroke="#4A3223" stroke-width="0.88" fill="none" opacity="0.74"/><ellipse cx="60" cy="80" rx="15.52" ry="27.47" stroke="#4A3223" stroke-width="0.55" fill="none" opacity="0.98"/><ellipse cx="60" cy="80" rx="3.12" ry="6.44" fill="#4A3223" opacity="0.75"/></svg>